<svg width="14" height="14" viewBox="0 0 14 14" fill="none" xmlns="http://www.w3.org/2000/svg">
<path d="M13.9963 3.20378C13.9967 3.35831 13.9665 3.5114 13.9074 3.65417C13.8482 3.79694 13.7614 3.92657 13.6518 4.03555L6.23435 11.453C5.9007 11.7857 5.44875 11.9725 4.97758 11.9725C4.50641 11.9725 4.05446 11.7857 3.72081 11.453L0.347491 8.07969C0.237622 7.97059 0.150371 7.84088 0.0907407 7.69799C0.0311106 7.5551 0.000274769 7.40185 1.82795e-06 7.24702C-0.000271113 7.09219 0.0300242 6.93882 0.0891502 6.79572C0.148276 6.65263 0.23507 6.52261 0.344553 6.41313C0.454037 6.30365 0.584056 6.21685 0.727155 6.15773C0.870254 6.09861 1.02362 6.06831 1.17845 6.06859C1.33328 6.06886 1.48653 6.0997 1.62942 6.15934C1.77231 6.21897 1.90202 6.30622 2.01111 6.41609L4.97758 9.38259L11.9883 2.37192C12.1528 2.20739 12.3624 2.09534 12.5906 2.04995C12.8188 2.00456 13.0553 2.02785 13.2702 2.1169C13.4852 2.20594 13.6689 2.35673 13.7981 2.5502C13.9274 2.74366 13.9964 2.97111 13.9963 3.20378Z" fill="white"/>
</svg>
