<svg width="24" height="24" viewBox="0 0 24 24" fill="none" xmlns="http://www.w3.org/2000/svg">
<g clip-path="url(#clip0_714_892)">
<path d="M23.2567 11.9973C23.2567 13.4743 22.9658 14.9368 22.4006 16.3013C21.8354 17.6659 21.0069 18.9058 19.9625 19.9501C18.9181 20.9945 17.6783 21.823 16.3137 22.3882C14.9492 22.9534 13.4867 23.2443 12.0097 23.2443C10.5327 23.2443 9.0702 22.9534 7.70566 22.3882C6.34111 21.823 5.10125 20.9945 4.05687 19.9501C3.01249 18.9058 2.18404 17.6659 1.61882 16.3013C1.05361 14.9368 0.762695 13.4743 0.762695 11.9973C0.762695 10.5203 1.05361 9.05781 1.61882 7.69326C2.18404 6.32872 3.01249 5.08886 4.05687 4.04448C5.10125 3.00009 6.34111 2.17165 7.70566 1.60643C9.0702 1.04122 10.5327 0.750305 12.0097 0.750305C13.4867 0.750305 14.9492 1.04122 16.3137 1.60643C17.6783 2.17165 18.9181 3.00009 19.9625 4.04448C21.0069 5.08886 21.8354 6.32872 22.4006 7.69326C22.9658 9.05781 23.2567 10.5203 23.2567 11.9973Z" fill="white"/>
<path d="M3.47852 9.37848L5.78371 5.92277L3.47852 9.37848ZM4.34244 9.95478L6.64764 6.49907L4.34244 9.95478ZM5.20637 10.5311L7.51156 7.07536L5.20637 10.5311Z" fill="#060606"/>
<path d="M3.47852 9.37848L5.78371 5.92277M4.34244 9.95478L6.64764 6.49907M5.20637 10.5311L7.51156 7.07536" stroke="#060606" stroke-width="0.703067"/>
<path d="M16.1494 17.8307L18.4546 14.375L16.1494 17.8307ZM17.0133 18.407L19.3185 14.9513L17.0133 18.407ZM17.8773 18.9833L20.1825 15.5276L17.8773 18.9833Z" fill="#060606"/>
<path d="M16.1494 17.8307L18.4546 14.375M17.0133 18.407L19.3185 14.9513M17.8773 18.9833L20.1825 15.5276" stroke="#060606" stroke-width="0.703067"/>
<path d="M16.7266 15.7188L19.6063 17.6398L16.7266 15.7188Z" fill="#060606"/>
<path d="M16.7266 15.7188L19.6063 17.6398" stroke="#060606" stroke-width="0.346168"/>
<path d="M15.2869 14.7583C16.5601 12.8498 16.0449 10.2706 14.1364 8.99744C12.2279 7.72431 9.64863 8.23942 8.3755 10.148C7.10238 12.0565 7.61749 14.6357 9.52602 15.9089C11.4346 17.182 14.0138 16.6669 15.2869 14.7583Z" fill="#E74C3C"/>
<path d="M8.3755 10.148C8.06982 10.6062 7.95869 11.1671 8.06657 11.7073C8.17446 12.2475 8.49251 12.7227 8.95076 13.0284C9.40902 13.3341 9.96994 13.4452 10.5101 13.3373C11.0503 13.2295 11.5255 12.9114 11.8312 12.4531C12.1369 11.9949 12.6121 11.6768 13.1523 11.569C13.6925 11.4611 14.2534 11.5722 14.7117 11.8779C15.1699 12.1836 15.488 12.6588 15.5959 13.199C15.7037 13.7392 15.5926 14.3001 15.2869 14.7583C14.6756 15.6749 13.7251 16.311 12.6448 16.5267C11.5644 16.7425 10.4425 16.5202 9.52602 15.9089C8.60951 15.2975 7.97341 14.3471 7.75764 13.2667C7.54188 12.1863 7.76413 11.0645 8.3755 10.148Z" fill="#356BA0"/>
<path d="M5.78418 18.9835L3.47899 15.5278L5.78418 18.9835ZM6.64811 18.4072L4.34292 14.9515L6.64811 18.4072ZM7.51204 17.8309L5.20684 14.3752L7.51204 17.8309Z" fill="#060606"/>
<path d="M5.78418 18.9835L3.47899 15.5278M6.64811 18.4072L4.34292 14.9515M7.51204 17.8309L5.20684 14.3752" stroke="#060606" stroke-width="0.703067"/>
<path d="M18.4551 10.531L16.1499 7.07532L18.4551 10.531ZM19.319 9.95474L17.0138 6.49903L19.319 9.95474ZM20.1829 9.37844L17.8777 5.92273L20.1829 9.37844Z" fill="#060606"/>
<path d="M18.4551 10.531L16.1499 7.07532M19.319 9.95474L17.0138 6.49903M20.1829 9.37844L17.8777 5.92273" stroke="#060606" stroke-width="0.703067"/>
<path d="M5.06348 16.9674L5.9274 16.3911L5.06348 16.9674ZM16.7265 9.18738L17.7344 8.51503L16.7265 9.18738ZM18.5983 7.93874L19.4623 7.36244L18.5983 7.93874Z" fill="#060606"/>
<path d="M5.06348 16.9674L5.9274 16.3911M16.7265 9.18738L17.7344 8.51503M18.5983 7.93874L19.4623 7.36244" stroke="#060606" stroke-width="0.346168"/>
</g>
<defs>
<clipPath id="clip0_714_892">
<rect width="24" height="24" fill="white"/>
</clipPath>
</defs>
</svg>
