<svg width="22" height="22" viewBox="0 0 22 22" fill="none" xmlns="http://www.w3.org/2000/svg">
<g clip-path="url(#clip0_714_929)">
<path d="M11 22C17.0751 22 22 17.0751 22 11C22 4.92487 17.0751 0 11 0C4.92487 0 0 4.92487 0 11C0 17.0751 4.92487 22 11 22Z" fill="#0052B4"/>
<path d="M11.0008 4.30435L11.357 5.40044H12.5094L11.577 6.07784L11.9332 7.17393L11.0008 6.49649L10.0684 7.17393L10.4246 6.07784L9.49219 5.40044H10.6447L11.0008 4.30435Z" fill="#FFDA44"/>
<path d="M6.26526 6.26546L7.29222 6.78864L8.10712 5.97379L7.92678 7.11203L8.95369 7.63526L7.8154 7.81556L7.63511 8.95388L7.11188 7.92697L5.97363 8.10731L6.78854 7.29241L6.26526 6.26546Z" fill="#FFDA44"/>
<path d="M4.30469 11L5.40078 10.6438V9.49136L6.07814 10.4238L7.17427 10.0676L6.49678 11L7.17427 11.9324L6.07814 11.5763L5.40078 12.5086V11.3562L4.30469 11Z" fill="#FFDA44"/>
<path d="M6.26526 15.7346L6.78849 14.7076L5.97363 13.8927L7.11192 14.0731L7.63506 13.0462L7.8154 14.1845L8.95364 14.3648L7.92686 14.888L8.10712 16.0262L7.29222 15.2113L6.26526 15.7346Z" fill="#FFDA44"/>
<path d="M11.0008 17.6956L10.6446 16.5995H9.49219L10.4246 15.9221L10.0684 14.8261L11.0008 15.5035L11.9332 14.8261L11.577 15.9221L12.5094 16.5995H11.3569L11.0008 17.6956Z" fill="#FFDA44"/>
<path d="M15.7352 15.7346L14.7083 15.2114L13.8934 16.0263L14.0737 14.8879L13.0469 14.3648L14.1851 14.1845L14.3654 13.0462L14.8886 14.0731L16.0268 13.8927L15.2119 14.7077L15.7352 15.7346Z" fill="#FFDA44"/>
<path d="M17.6957 11L16.5996 11.3562V12.5086L15.9222 11.5762L14.8262 11.9324L15.5036 11L14.8262 10.0676L15.9222 10.4238L16.5996 9.49136V10.6439L17.6957 11Z" fill="#FFDA44"/>
<path d="M15.7352 6.26544L15.212 7.2924L16.0269 8.1073L14.8886 7.92692L14.3654 8.95383L14.1851 7.81554L13.0469 7.6352L14.0737 7.11202L13.8934 5.97382L14.7083 6.78868L15.7352 6.26544Z" fill="#FFDA44"/>
</g>
<defs>
<clipPath id="clip0_714_929">
<rect width="22" height="22" fill="white"/>
</clipPath>
</defs>
</svg>
