<svg width="288" height="48" viewBox="0 0 288 48" fill="none" xmlns="http://www.w3.org/2000/svg">
<path d="M288 19.4271C287.339 19.372 287.022 19.3445 287.05 19.3445C286.113 19.3445 285.149 20.598 284.157 23.1049C281.485 29.8268 279.405 35.5018 277.917 40.13C277.669 40.0473 277.394 40.006 277.091 40.006C276.788 40.006 276.457 40.0473 276.099 40.13C274.198 34.5376 272.104 28.8488 269.818 23.0636C269.377 21.9616 269.005 21.1903 268.702 20.7495C268.124 19.8404 267.449 19.3858 266.677 19.3858C266.512 19.3858 266.292 19.3996 266.016 19.4271C266.071 18.9864 266.099 18.7522 266.099 18.7246C266.099 18.7246 266.071 18.5043 266.016 18.0635C267.917 18.1461 269.542 18.1874 270.892 18.1874C272.242 18.1874 273.799 18.1461 275.562 18.0635C275.507 18.2839 275.479 18.5043 275.479 18.7246C275.479 18.9726 275.507 19.2067 275.562 19.4271C274.845 19.372 274.405 19.3445 274.239 19.3445C273.688 19.3445 273.413 19.7026 273.413 20.4189C273.413 20.8597 273.496 21.3693 273.661 21.9478C274.625 25.3088 275.892 28.9865 277.463 32.9811C277.655 33.5045 277.793 34.0968 277.876 34.758C277.931 35.2539 278 35.5018 278.082 35.5018C278.11 35.5018 278.165 35.3227 278.248 34.9646C278.358 34.4136 278.537 33.8213 278.785 33.1877C279.887 30.3502 280.934 27.4025 281.925 24.3446C282.229 23.4355 282.38 22.485 282.38 21.4933C282.38 20.0608 281.912 19.3445 280.975 19.3445C280.782 19.3445 280.341 19.372 279.653 19.4271C279.735 19.0966 279.777 18.8624 279.777 18.7246C279.777 18.6145 279.735 18.3941 279.653 18.0635C281.361 18.1186 282.711 18.1461 283.702 18.1461C285.273 18.1461 286.705 18.1186 288 18.0635C287.945 18.2563 287.917 18.4629 287.917 18.6833C287.917 18.9588 287.945 19.2067 288 19.4271Z" fill="#060606"/>
<path d="M262.523 11.7408C262.523 12.402 262.275 12.9667 261.779 13.435C261.283 13.9034 260.691 14.1375 260.002 14.1375C259.314 14.1375 258.721 13.9034 258.226 13.435C257.757 12.9667 257.523 12.402 257.523 11.7408C257.523 11.0796 257.757 10.5149 258.226 10.0465C258.721 9.55067 259.314 9.30273 260.002 9.30273C260.691 9.30273 261.283 9.55067 261.779 10.0465C262.275 10.5149 262.523 11.0796 262.523 11.7408ZM265.374 39.7992C263.804 39.7441 261.958 39.7165 259.837 39.7165C257.799 39.7165 256.215 39.7441 255.085 39.7992C255.14 39.6063 255.168 39.3997 255.168 39.1793C255.168 38.9314 255.14 38.6834 255.085 38.4355C255.691 38.4906 256.132 38.5181 256.407 38.5181C257.537 38.5181 258.143 37.7055 258.226 36.0801C258.308 34.2343 258.35 31.507 258.35 27.8981C258.35 26.3278 258.308 24.427 258.226 22.1955C258.17 20.5426 257.578 19.7161 256.449 19.7161C256.201 19.7161 255.677 19.7437 254.878 19.7988C254.961 19.4958 255.002 19.2065 255.002 18.931C255.002 18.6831 254.961 18.38 254.878 18.0219C257.027 18.0219 259.493 17.8015 262.275 17.3607C262.193 19.6197 262.151 23.3526 262.151 28.5593C262.151 30.2397 262.193 32.7467 262.275 36.0801C262.303 37.7055 262.881 38.5181 264.011 38.5181C264.314 38.5181 264.768 38.4906 265.374 38.4355C265.292 38.7936 265.251 39.0416 265.251 39.1793C265.251 39.2895 265.292 39.4961 265.374 39.7992Z" fill="#060606"/>
<path d="M253.297 33.8902C252.829 38.1602 250.901 40.2952 247.512 40.2952C244.344 40.2952 242.76 38.3944 242.76 34.5927C242.76 33.3805 242.788 31.5761 242.843 29.1793C242.898 26.7551 242.925 24.9368 242.925 23.7247C242.925 22.9809 242.912 21.8376 242.884 20.2949C242.884 19.9092 242.705 19.7164 242.347 19.7164C242.099 19.7164 241.259 19.7439 239.826 19.799C239.909 19.6062 239.95 19.4271 239.95 19.2618C239.95 19.0965 239.909 18.9037 239.826 18.6833C241.341 18.4629 242.609 17.416 243.628 15.5427C244.509 13.9174 245.06 12.0027 245.281 9.79883C245.584 9.85392 245.859 9.88147 246.107 9.88147C246.328 9.88147 246.562 9.85392 246.81 9.79883C246.644 12.719 246.562 15.2948 246.562 17.5262C246.562 17.9119 246.796 18.1048 247.264 18.1048H249.702C249.95 18.1048 250.35 18.091 250.901 18.0634C251.589 18.0359 252.03 18.0221 252.223 18.0221C252.14 18.4353 252.099 18.7659 252.099 19.0139C252.099 19.2618 252.14 19.5235 252.223 19.799C251.7 19.799 251.162 19.7852 250.611 19.7577C250.088 19.7301 249.771 19.7164 249.661 19.7164H247.223C246.81 19.7164 246.603 19.9092 246.603 20.2949C246.548 21.9754 246.521 23.3115 246.521 24.3032C246.521 28.3804 246.603 32.0995 246.768 35.4604C246.879 37.444 247.498 38.4357 248.628 38.4357C249.344 38.4357 250.005 38.0913 250.611 37.4026C251.355 36.5486 251.782 35.3227 251.892 33.7249C252.251 33.8902 252.581 33.9728 252.884 33.9728C252.857 33.9728 252.994 33.9453 253.297 33.8902Z" fill="#060606"/>
<path d="M239.186 38.2285C238.305 39.5784 237.079 40.2533 235.508 40.2533C233.635 40.2533 232.547 39.3029 232.244 37.402C232.134 36.7133 232.092 36.369 232.12 36.369C232.037 36.369 231.913 36.5756 231.748 36.9888C231.583 37.402 231.5 37.6087 231.5 37.6087C230.922 38.4351 229.985 39.0963 228.69 39.5922C227.506 40.0605 226.348 40.2947 225.219 40.2947C223.456 40.2947 222.051 39.785 221.004 38.7657C219.985 37.7464 219.475 36.4241 219.475 34.7987C219.475 30.6939 223.167 28.1181 230.55 27.0713C231.349 26.9611 231.748 26.6718 231.748 26.2035V24.0134C231.693 22.9114 231.652 22.264 231.624 22.0712C231.541 21.1896 231.417 20.5698 231.252 20.2116C230.784 19.2199 229.668 18.724 227.905 18.724C225.481 18.724 224.269 19.3301 224.269 20.5422C224.269 20.8453 224.351 21.2723 224.517 21.8232C224.682 22.3742 224.764 22.8012 224.764 23.1043C224.764 23.7103 224.53 24.2062 224.062 24.5919C223.594 24.9776 223.043 25.1704 222.409 25.1704C220.921 25.1704 220.178 24.3715 220.178 22.7737C220.178 21.4789 220.866 20.2943 222.244 19.2199C223.814 17.9802 225.825 17.3604 228.277 17.3604C230.866 17.3604 232.754 17.8149 233.938 18.724C235.123 19.6331 235.715 21.0519 235.715 22.9803C235.715 23.7792 235.701 24.9638 235.674 26.5341C235.646 28.1043 235.632 29.2889 235.632 30.0879C235.632 32.5948 235.66 34.4268 235.715 35.5838C235.798 37.5122 236.197 38.4764 236.913 38.4764C237.299 38.4764 237.74 38.1459 238.236 37.4847C238.456 37.8704 238.773 38.1183 239.186 38.2285ZM231.748 29.1787C231.748 28.6278 231.569 28.3523 231.211 28.3523C230.935 28.3523 230.798 28.3523 230.798 28.3523C228.428 28.6829 226.72 29.2063 225.674 29.9226C224.296 30.8592 223.607 32.3468 223.607 34.3855C223.607 37.0852 224.558 38.4351 226.459 38.4351C228.112 38.4351 229.434 37.829 230.426 36.6169C231.28 35.5149 231.707 34.1788 231.707 32.6086C231.707 32.2229 231.721 31.6995 231.748 31.0383C231.748 30.3771 231.748 29.7573 231.748 29.1787Z" fill="#060606"/>
<path d="M216.184 34.0549C214.09 38.2147 211.129 40.2947 207.3 40.2947C204.269 40.2947 201.872 39.1101 200.109 36.7409C198.539 34.5921 197.754 31.9749 197.754 28.8895C197.754 25.804 198.594 23.1594 200.275 20.9555C202.093 18.5587 204.49 17.3604 207.465 17.3604C210.44 17.3604 212.672 18.5174 214.159 20.8315C215.344 22.7048 215.936 25.0464 215.936 27.8564V28.4349C215.688 28.4349 214.476 28.3936 212.3 28.311C210.592 28.2283 209.187 28.187 208.085 28.187C205.578 28.187 203.773 28.2008 202.671 28.2283C202.093 28.2559 201.804 28.4487 201.804 28.8068C201.804 31.2587 202.368 33.3937 203.498 35.2119C204.71 37.1403 206.225 38.1045 208.043 38.1045C211.074 38.1045 213.36 36.5067 214.903 33.3111C215.261 33.6967 215.688 33.9447 216.184 34.0549ZM211.638 25.9556C211.638 23.4211 211.294 21.5753 210.605 20.4183C209.917 19.2337 208.815 18.6414 207.3 18.6414C205.674 18.6414 204.366 19.3025 203.374 20.6249C202.327 22.0299 201.804 23.9032 201.804 26.2448C201.804 26.5478 201.845 26.7269 201.928 26.782C202.01 26.8371 202.231 26.8784 202.589 26.906C204.462 26.9886 205.963 27.0299 207.093 27.0299C206.735 27.0299 207.974 26.9611 210.812 26.8233C211.363 26.7958 211.638 26.5065 211.638 25.9556Z" fill="#060606"/>
<path d="M195.384 21.1621C195.384 22.1814 195.15 22.9527 194.682 23.4762C194.213 23.9996 193.649 24.2613 192.988 24.2613C192.437 24.2613 191.954 24.096 191.541 23.7654C191.128 23.4073 190.921 22.9527 190.921 22.4018C190.921 21.8232 191.1 21.2585 191.459 20.7075C191.844 20.129 192.037 19.7571 192.037 19.5918C192.037 19.2061 191.693 19.0133 191.004 19.0133C189.902 19.0133 188.8 19.7158 187.698 21.1208C186.541 22.6084 185.921 24.3577 185.839 26.3688C185.756 28.5451 185.715 30.1567 185.715 31.2036C185.715 34.0962 185.784 35.9833 185.921 36.8648C186.059 37.9668 186.665 38.5178 187.74 38.5178C188.043 38.5178 188.58 38.4902 189.351 38.4351C189.296 38.7106 189.268 38.9723 189.268 39.2203C189.268 39.358 189.31 39.5508 189.392 39.7988C188.07 39.7161 186.417 39.6748 184.434 39.6748C182.395 39.6748 180.467 39.7161 178.648 39.7988C178.731 39.4682 178.772 39.2478 178.772 39.1376C178.772 38.9999 178.731 38.7657 178.648 38.4351C179.31 38.4627 179.737 38.4764 179.929 38.4764C181.114 38.4764 181.734 37.6775 181.789 36.0797C181.844 34.2615 181.872 31.9887 181.872 29.2614C181.872 24.771 181.817 22.1401 181.706 21.3687C181.569 20.2943 181.059 19.7571 180.177 19.7571C179.902 19.7571 179.42 19.7846 178.731 19.8397C178.814 19.5092 178.855 19.2061 178.855 18.9306C178.855 18.6827 178.814 18.3934 178.731 18.0628C181.651 18.0628 183.745 17.8425 185.012 17.4017C185.343 18.2832 185.508 19.4127 185.508 20.7902C185.508 20.9555 185.481 21.2447 185.425 21.658C185.398 22.0436 185.384 22.3329 185.384 22.5257C185.384 22.6359 185.412 22.691 185.467 22.691C185.522 22.691 185.577 22.6359 185.632 22.5257C185.742 22.1952 185.935 21.7406 186.211 21.1621C187.698 18.6276 189.516 17.3604 191.665 17.3604C192.795 17.3604 193.69 17.7185 194.351 18.4348C195.04 19.1235 195.384 20.0326 195.384 21.1621Z" fill="#060606"/>
<path d="M176.89 34.5507C174.879 38.38 172.124 40.2947 168.625 40.2947C165.87 40.2947 163.694 39.2891 162.096 37.2781C160.526 35.267 159.741 32.581 159.741 29.2201C159.741 25.9142 160.65 23.118 162.468 20.8315C164.314 18.5174 166.669 17.3604 169.534 17.3604C171.545 17.3604 173.198 17.9251 174.493 19.0546C175.788 20.1841 176.435 21.5753 176.435 23.2282C176.435 24.1649 176.201 24.9225 175.733 25.501C175.264 26.0795 174.645 26.3688 173.873 26.3688C173.074 26.3688 172.441 26.1759 171.972 25.7903C171.532 25.377 171.311 24.8674 171.311 24.2613C171.311 23.6001 171.559 22.9803 172.055 22.4018C172.716 21.6304 173.047 21.1345 173.047 20.9141C173.047 20.3356 172.771 19.8397 172.22 19.4265C171.559 18.9582 170.678 18.724 169.576 18.724C167.812 18.724 166.421 19.6331 165.402 21.4513C164.383 23.2695 163.873 25.6938 163.873 28.7242C163.873 31.7821 164.452 34.2064 165.609 35.9971C166.655 37.6224 168.005 38.4351 169.658 38.4351C171.78 38.4351 173.777 36.9199 175.65 33.8896C176.063 34.2753 176.477 34.4956 176.89 34.5507Z" fill="#060606"/>
<path d="M156.431 28.6829C156.431 31.603 155.701 34.1651 154.241 36.369C152.506 38.9861 150.109 40.2947 147.051 40.2947C143.966 40.2947 141.541 39.0412 139.778 36.5343C138.263 34.413 137.505 31.8785 137.505 28.9308C137.505 25.9555 138.235 23.3797 139.695 21.2034C141.459 18.6414 143.897 17.3604 147.01 17.3604C150.068 17.3604 152.464 18.6138 154.2 21.1208C155.688 23.242 156.431 25.7627 156.431 28.6829ZM152.299 28.8068C152.299 26.5203 151.996 24.4955 151.39 22.7324C150.481 20.0601 149.021 18.724 147.01 18.724C144.944 18.724 143.456 20.0601 142.547 22.7324C141.968 24.4679 141.679 26.5203 141.679 28.8895C141.679 31.2587 141.954 33.2835 142.505 34.964C143.387 37.6087 144.861 38.931 146.927 38.931C149.048 38.931 150.55 37.6087 151.431 34.964C152.01 33.2835 152.299 31.2311 152.299 28.8068Z" fill="#060606"/>
<path d="M135.139 33.8902C134.671 38.1602 132.743 40.2952 129.354 40.2952C126.186 40.2952 124.602 38.3944 124.602 34.5927C124.602 33.3805 124.629 31.5761 124.685 29.1793C124.74 26.7551 124.767 24.9368 124.767 23.7247C124.767 22.9809 124.753 21.8376 124.726 20.2949C124.726 19.9092 124.547 19.7164 124.189 19.7164C123.941 19.7164 123.101 19.7439 121.668 19.799C121.751 19.6062 121.792 19.4271 121.792 19.2618C121.792 19.0965 121.751 18.9037 121.668 18.6833C123.183 18.4629 124.45 17.416 125.47 15.5427C126.351 13.9174 126.902 12.0027 127.123 9.79883C127.426 9.85392 127.701 9.88147 127.949 9.88147C128.169 9.88147 128.404 9.85392 128.652 9.79883C128.486 12.719 128.404 15.2948 128.404 17.5262C128.404 17.9119 128.638 18.1048 129.106 18.1048H131.544C131.792 18.1048 132.192 18.091 132.743 18.0634C133.431 18.0359 133.872 18.0221 134.065 18.0221C133.982 18.4353 133.941 18.7659 133.941 19.0139C133.941 19.2618 133.982 19.5235 134.065 19.799C133.541 19.799 133.004 19.7852 132.453 19.7577C131.93 19.7301 131.613 19.7164 131.503 19.7164H129.065C128.652 19.7164 128.445 19.9092 128.445 20.2949C128.39 21.9754 128.362 23.3115 128.362 24.3032C128.362 28.3804 128.445 32.0995 128.61 35.4604C128.72 37.444 129.34 38.4357 130.47 38.4357C131.186 38.4357 131.847 38.0913 132.453 37.4026C133.197 36.5486 133.624 35.3227 133.734 33.7249C134.092 33.8902 134.423 33.9728 134.726 33.9728C134.699 33.9728 134.836 33.9453 135.139 33.8902Z" fill="#060606"/>
<path d="M119.942 39.7988C117.628 39.8539 115.424 40.0192 113.33 40.2947C113.165 38.4213 113.082 37.3607 113.082 37.1128C113.082 36.8373 113.11 36.4792 113.165 36.0384C113.248 35.57 113.289 35.3497 113.289 35.3772C113.289 35.267 113.261 35.2119 113.206 35.2119C113.096 35.2119 113.013 35.267 112.958 35.3772C112.71 35.8455 112.352 36.4378 111.884 37.1541C110.038 39.2478 107.999 40.2947 105.768 40.2947C103.867 40.2947 102.462 39.7299 101.553 38.6004C100.644 37.4709 100.189 35.6114 100.189 33.0218C100.189 32.3055 100.203 31.2862 100.231 29.9639C100.258 28.6415 100.272 27.6222 100.272 26.906C100.272 24.9225 100.258 23.4486 100.231 22.4844C100.203 21.3274 100.052 20.5836 99.7762 20.253C99.5283 19.9224 99.1013 19.7571 98.4952 19.7571C98.2197 19.7571 97.7789 19.7846 97.1729 19.8397C97.2279 19.4816 97.2555 19.1923 97.2555 18.972C97.2555 18.8618 97.2279 18.5587 97.1729 18.0628C99.9828 18.0628 102.38 17.8287 104.363 17.3604C104.198 20.0877 104.115 22.4155 104.115 24.344C104.115 28.1181 104.156 30.873 104.239 32.6086C104.349 35.0053 104.639 36.5893 105.107 37.3607C105.493 37.9943 106.181 38.3111 107.173 38.3111C108.192 38.3111 109.267 37.7739 110.396 36.6995C111.967 35.2119 112.793 33.4488 112.876 31.4102C112.986 28.8482 113.041 27.1126 113.041 26.2035C113.041 25.5148 113.013 24.2889 112.958 22.5257C112.931 21.7819 112.889 21.2585 112.834 20.9555C112.669 20.3494 112.366 19.9775 111.925 19.8397C111.732 19.7846 111.457 19.7571 111.099 19.7571C110.906 19.7571 110.396 19.7846 109.57 19.8397C109.625 19.6193 109.652 19.3163 109.652 18.9306C109.652 18.5725 109.625 18.2832 109.57 18.0628C112.27 18.0628 114.776 17.8287 117.091 17.3604C116.898 22.264 116.801 25.1429 116.801 25.9969V35.5012C116.801 36.5205 116.884 37.223 117.049 37.6087C117.325 38.1872 117.903 38.4764 118.785 38.4764C119.088 38.4764 119.474 38.4627 119.942 38.4351C119.859 38.8208 119.818 39.0687 119.818 39.1789C119.818 39.2891 119.859 39.4957 119.942 39.7988Z" fill="#060606"/>
<path d="M97.7557 39.7992C95.9651 39.7165 93.8851 39.6752 91.5159 39.6752C89.257 39.6752 87.301 39.7165 85.6481 39.7992C85.7307 39.4686 85.772 39.2482 85.772 39.138C85.772 39.0278 85.7307 38.7937 85.6481 38.4355C86.3643 38.4906 86.8464 38.5182 87.0944 38.5182C88.031 38.5182 88.4994 38.0636 88.4994 37.1545C88.4994 36.4107 87.8106 34.014 86.4332 29.9643C86.2955 29.5786 85.8822 29.372 85.1935 29.3444L81.6811 29.2618C81.7086 29.2618 80.2623 29.2894 77.3421 29.3444C76.5983 29.372 76.1575 29.6062 76.0198 30.0469C75.9372 30.35 75.6479 31.3693 75.152 33.1049C74.9316 33.8762 74.8214 34.7027 74.8214 35.5842C74.8214 37.5126 75.3862 38.4768 76.5157 38.4768C76.7636 38.4768 77.3284 38.4631 78.2099 38.4355C78.1273 38.7386 78.086 38.959 78.086 39.0967C78.086 39.2069 78.1273 39.4411 78.2099 39.7992C77.0529 39.7441 75.2347 39.7165 72.7553 39.7165C70.7718 39.7165 69.0913 39.7441 67.7139 39.7992C67.7414 39.5512 67.7552 39.3171 67.7552 39.0967C67.7552 38.8488 67.7414 38.6284 67.7139 38.4355C67.9894 38.4906 68.5128 38.5182 69.2841 38.5182C69.9453 38.5182 70.5514 38.0912 71.1024 37.2372C71.5431 36.4933 72.1217 35.1297 72.8379 33.1462C74.8765 27.5262 77.7003 19.358 81.3092 8.6416C81.7224 8.77934 82.1081 8.84822 82.4662 8.84822C82.8794 8.84822 83.2789 8.77934 83.6646 8.6416C86.3092 16.5756 89.3947 25.1157 92.9209 34.2619C94.0229 37.0994 95.1248 38.5182 96.2268 38.5182C96.4196 38.5182 96.9293 38.4906 97.7557 38.4355C97.6731 38.8212 97.6318 39.0829 97.6318 39.2207C97.6318 39.3309 97.6731 39.5237 97.7557 39.7992ZM85.5241 27.4849C85.5241 27.3472 85.5103 27.237 85.4828 27.1543C84.188 23.3802 82.9345 19.9503 81.7224 16.8649C81.6397 16.4792 81.5295 15.9007 81.3918 15.1293C81.2816 14.5783 81.1714 14.3029 81.0612 14.3029C80.9786 14.3029 80.8959 14.4131 80.8133 14.6334C80.6755 15.212 80.4965 15.8869 80.2761 16.6583C79.3945 19.2754 78.2788 22.7603 76.9289 27.113C76.8738 27.3058 76.8463 27.4023 76.8463 27.4023C76.8463 27.6502 77.108 27.788 77.6314 27.8155L81.6811 27.9395C82.1769 27.9395 83.2238 27.9119 84.8216 27.8568C85.2899 27.8293 85.5241 27.7053 85.5241 27.4849Z" fill="#060606"/>
<path d="M25.5319 1.04943C25.5773 1.02099 25.6679 0.977236 25.7327 0.95317C25.819 0.920353 25.9075 0.909414 26.0565 0.907227C26.2098 0.907227 26.294 0.918166 26.3911 0.95317C26.4624 0.977236 26.5832 1.04506 26.661 1.10194C26.7883 1.19383 26.8186 1.23321 26.9934 1.53075C27.0992 1.71234 27.341 2.12365 27.531 2.44963C27.7209 2.77561 28.0167 3.281 28.1894 3.57635C28.3621 3.8717 28.6211 4.31364 28.7658 4.56086C28.9104 4.80809 29.4846 5.78603 30.0395 6.73773C30.5943 7.68724 31.1534 8.64331 31.2808 8.8599C31.4081 9.0765 31.7341 9.6322 32.0039 10.096C32.2738 10.5598 32.5998 11.1155 32.7271 11.3321C32.8545 11.5487 33.2431 12.2138 33.5907 12.8089C33.9382 13.404 34.3268 14.0691 34.4542 14.2857C34.5815 14.5023 34.9075 15.058 35.1774 15.5218C35.4494 15.9856 35.8379 16.6485 36.0409 16.9985C36.246 17.3486 36.5827 17.924 36.79 18.2784C36.9972 18.6328 37.3901 19.3023 37.66 19.7661C37.9298 20.2299 38.2709 20.8097 38.4155 21.0569C38.5602 21.3041 38.7437 21.6192 38.8257 21.757C38.9044 21.8928 39.1066 22.2386 39.2776 22.5312L39.2855 22.5446L40.6671 24.9075C41.2565 25.9117 41.8113 26.8612 41.902 27.0187C41.9926 27.1762 42.2366 27.5941 42.446 27.9485L42.5398 28.1089C42.7801 28.52 43.2036 29.2444 43.5534 29.841C43.955 30.5257 44.3328 31.1712 44.391 31.274C44.4493 31.3768 44.6307 31.6853 44.7947 31.9631C44.9566 32.241 45.2826 32.7967 45.5179 33.1992C45.7532 33.6018 46.1159 34.2231 46.3232 34.5776C46.5304 34.932 46.783 35.3608 46.8844 35.5293C46.9859 35.6977 47.096 35.8924 47.1305 35.9603C47.1629 36.0303 47.2061 36.1484 47.2234 36.2228C47.2406 36.2994 47.2557 36.4241 47.2557 36.5028C47.2557 36.5816 47.2471 36.6997 47.2342 36.7654C47.2212 36.831 47.178 36.9601 47.1348 37.0498C47.083 37.1592 47.0125 37.2598 46.9233 37.3517C46.8456 37.4327 46.7355 37.518 46.6513 37.5639C46.5736 37.6033 46.457 37.6492 46.3922 37.6667C46.2929 37.6908 44.5551 37.6952 26.1752 37.6842L26.1018 37.4939C26.063 37.3867 25.9896 37.2226 25.9399 37.1264C25.8903 37.0301 25.8039 36.8813 25.75 36.7982C25.6938 36.7151 25.5859 36.5685 25.5082 36.4744C25.4305 36.3825 25.2901 36.2403 25.1973 36.1615C25.1066 36.0806 24.9447 35.9559 24.8368 35.8859C24.7289 35.8137 24.5648 35.7174 24.4698 35.6715C24.3748 35.6233 24.1956 35.5511 24.0704 35.5096C23.9452 35.468 23.7574 35.4177 23.6495 35.398C23.5415 35.3783 23.3343 35.3564 23.1853 35.3499C22.9997 35.3411 22.8356 35.3499 22.6564 35.3739C22.5139 35.3914 22.2959 35.4374 22.1707 35.4746C22.0455 35.5118 21.8188 35.6036 21.6634 35.6802C21.495 35.7634 21.2964 35.8837 21.1669 35.9821C21.0481 36.0718 20.8689 36.2337 20.7675 36.3409C20.666 36.4481 20.5192 36.6341 20.4394 36.7544C20.3595 36.8748 20.2559 37.0564 20.2084 37.1592C20.1609 37.262 20.0918 37.4392 20.0551 37.553C20.0184 37.6667 19.9731 37.844 19.9558 37.9468C19.9385 38.0496 19.9169 38.2465 19.9104 38.3843C19.904 38.5287 19.9083 38.7322 19.9234 38.8657C19.9385 38.9926 19.9731 39.1895 20.0033 39.3032C20.0335 39.417 20.0853 39.5898 20.122 39.6861C20.1587 39.7824 20.2364 39.9486 20.2947 40.058C20.353 40.1674 20.4631 40.3381 20.5387 40.4409C20.6142 40.5437 20.7524 40.7034 20.8474 40.7975C20.9402 40.8894 21.0935 41.025 21.1884 41.0972C21.2834 41.1694 21.4864 41.2919 21.6418 41.3685C21.7972 41.4473 22.0153 41.5392 22.1275 41.5742C22.2398 41.6114 22.4254 41.6595 22.5377 41.6792C22.6888 41.7098 22.8464 41.7186 23.1421 41.7186C23.4314 41.7186 23.5976 41.7076 23.7466 41.6792C23.8589 41.6573 24.0445 41.6114 24.1568 41.5742C24.269 41.5392 24.459 41.4582 24.5777 41.3991C24.6965 41.3401 24.8649 41.2394 24.9534 41.1782C25.0419 41.1147 25.1822 41.001 25.2642 40.9222C25.3484 40.8434 25.4715 40.71 25.5384 40.6269C25.6053 40.5437 25.6895 40.4299 25.7262 40.3753C25.7629 40.3206 25.8428 40.1783 25.9011 40.058C25.9615 39.9377 26.0479 39.7277 26.1752 39.3448L47.9142 39.3579L48.0869 39.4192C48.1819 39.4542 48.3135 39.5133 48.3783 39.5505C48.4431 39.5898 48.5424 39.6642 48.5964 39.7189C48.6525 39.7736 49.4404 40.8719 50.345 42.1583C51.2517 43.4447 52.0202 44.5474 52.0526 44.6087C52.0849 44.6677 52.1411 44.8077 52.1799 44.915C52.2404 45.09 52.249 45.1447 52.2576 45.4181C52.2663 45.7004 52.2641 45.7376 52.2123 45.8995C52.1821 45.9957 52.1216 46.1336 52.0741 46.2058C52.0288 46.278 51.9425 46.3808 51.8842 46.4355C51.8259 46.4902 51.7244 46.5667 51.6597 46.6039C51.5949 46.6411 51.4718 46.6936 51.3898 46.7177C51.2409 46.7636 51.1998 46.7658 48.7777 46.7855C47.4241 46.7965 45.6453 46.8096 44.8271 46.8183L44.4863 46.8211C43.7168 46.8272 42.7956 46.8345 42.3013 46.8402C41.7622 46.8464 40.6762 46.8546 39.8221 46.861L39.6784 46.8621C38.8063 46.8687 37.47 46.8774 36.7101 46.884C35.9502 46.8905 34.629 46.8993 33.7742 46.9059L33.4451 46.9084C32.6364 46.9145 31.661 46.922 31.1404 46.9277C30.5468 46.9343 29.4199 46.9431 28.6362 46.9496C27.8526 46.9562 26.6566 46.9649 25.9809 46.9715C25.3579 46.9775 24.1309 46.9855 23.148 46.9918L22.9047 46.9934C21.8901 46.9999 20.6207 47.0087 20.0875 47.0152C19.5521 47.0218 18.3777 47.0306 17.4753 47.0393C16.573 47.0459 14.9064 47.059 13.773 47.0699C12.5835 47.0809 11.6617 47.0787 11.5927 47.0678C11.5279 47.0568 11.42 47.0306 11.3552 47.0087C11.2904 46.9868 11.1933 46.9387 11.1393 46.9015C11.0853 46.8643 11.0012 46.7899 10.9493 46.733C10.8997 46.6783 10.8457 46.6061 10.8285 46.5711C10.8133 46.5383 10.7831 46.4617 10.7615 46.4027C10.7356 46.3239 10.727 46.2211 10.727 46.0417C10.727 45.8338 10.7378 45.7463 10.7918 45.5385C10.8263 45.4006 10.8997 45.1731 10.9558 45.0353C11.0098 44.8974 11.1695 44.5583 11.3099 44.2805C11.4502 44.0026 11.7308 43.4732 11.9316 43.0991C12.1345 42.725 12.5706 41.9286 12.903 41.327C13.2355 40.7253 13.6759 39.9333 13.881 39.5658C14.0861 39.1982 14.4185 38.6031 14.6214 38.2421C14.8244 37.8812 15.4914 36.6954 16.1067 35.6058C16.7198 34.5163 17.4278 33.2605 17.6804 32.8164C17.933 32.3723 18.3971 31.554 18.7102 31.0005C19.0253 30.447 19.4528 29.6944 19.6622 29.3268C19.8694 28.9593 20.0853 28.5808 20.1414 28.4845C20.1976 28.3883 20.3465 28.1257 20.4739 27.8982C20.5991 27.6728 20.7092 27.4891 20.7178 27.4891C20.7286 27.4891 20.774 27.5 20.8215 27.511C20.8689 27.5219 21.0244 27.5416 21.1669 27.5547C21.3417 27.57 21.5123 27.57 21.6958 27.5547C21.8447 27.5416 22.0628 27.5088 22.1815 27.4781C22.3002 27.4497 22.4621 27.3994 22.542 27.3687C22.624 27.3381 22.7644 27.2769 22.855 27.2287C22.9479 27.1828 23.1098 27.0843 23.2177 27.0121C23.3256 26.9399 23.4832 26.813 23.5717 26.7299C23.6603 26.649 23.7876 26.5111 23.8545 26.428C23.9236 26.3449 24.0229 26.2048 24.0747 26.1217C24.1287 26.0386 24.2151 25.8854 24.2647 25.7826C24.3144 25.6798 24.3878 25.4982 24.4288 25.3778C24.4676 25.2575 24.5151 25.0847 24.5324 24.995C24.5497 24.9053 24.5756 24.7193 24.5885 24.5837C24.6036 24.4174 24.6036 24.2577 24.5885 24.087C24.5777 23.9492 24.5475 23.7392 24.5216 23.621C24.4957 23.5051 24.4504 23.3388 24.4223 23.2557C24.3921 23.1725 24.323 23.015 24.269 22.9056C24.2151 22.7962 24.1481 22.6693 24.1158 22.6212C24.0855 22.5731 24.0013 22.4549 23.9279 22.3587C23.8545 22.2624 23.7229 22.1136 23.6343 22.0283C23.548 21.943 23.4142 21.8248 23.3364 21.7658C23.2587 21.7045 23.1098 21.6061 23.0018 21.547C22.8939 21.4857 22.7449 21.4092 22.6672 21.3785C22.5895 21.3457 22.4449 21.2954 22.3434 21.2648C22.2419 21.2341 22.0735 21.1948 21.9656 21.1773C21.8577 21.1597 21.6893 21.1401 21.5878 21.1313C21.4864 21.1247 21.2921 21.1291 21.1561 21.1422C21.0201 21.1576 20.8387 21.1816 20.7567 21.2013C20.6747 21.2188 20.5235 21.2582 20.4221 21.291C20.3206 21.3238 20.1306 21.4048 20.0011 21.4726C19.8694 21.5382 19.6816 21.652 19.5802 21.7242C19.4787 21.7964 19.2952 21.9583 19.17 22.0852C19.0253 22.2296 18.8893 22.3959 18.7987 22.5337C18.7188 22.654 18.6109 22.8465 18.5591 22.9603C18.5072 23.0741 18.4382 23.2469 18.4058 23.3432C18.3756 23.4394 18.3281 23.6167 18.3022 23.737C18.2633 23.9186 18.2547 24.0236 18.2547 24.3496C18.2547 24.6712 18.2633 24.7849 18.3022 24.9622C18.3259 25.0825 18.3777 25.2684 18.4144 25.3778C18.4533 25.4872 18.5396 25.6885 18.6109 25.8263C18.6799 25.9642 18.8073 26.172 18.8915 26.2858C18.9757 26.3995 19.0923 26.5418 19.2585 26.7124L18.6065 27.8501L17.8423 29.1846C17.7819 29.294 17.484 29.8103 17.1839 30.3332C16.8838 30.8561 16.519 31.4928 16.3744 31.7444C16.2297 31.996 15.9512 32.4795 15.7591 32.8164C15.5648 33.1533 15.2863 33.6412 15.1374 33.8993C14.9884 34.1575 14.7272 34.6148 14.5545 34.9167C14.3818 35.2164 14.1962 35.5424 14.14 35.6387C14.0839 35.7349 13.8745 36.0981 13.6759 36.4481C13.4751 36.7982 13.1103 37.4327 12.8663 37.8593C12.6202 38.2859 12.3245 38.8044 12.2079 39.0079C12.0913 39.2113 11.897 39.5526 11.7762 39.7627C11.6531 39.9727 11.502 40.2396 11.4372 40.3534C11.3725 40.4671 11.0875 40.966 10.8047 41.4582C10.5219 41.9527 10.2369 42.4493 10.1722 42.5631C10.1074 42.6768 9.98005 42.8978 9.89154 43.0553C9.80087 43.2128 9.56772 43.6198 9.37343 43.9633C9.17914 44.3067 8.83805 44.9062 8.62002 45.2978C8.39982 45.6894 8.16883 46.0876 8.10623 46.1839C8.04362 46.2801 7.93352 46.4223 7.86444 46.5011C7.7932 46.5799 7.66799 46.6936 7.58596 46.7549C7.50393 46.8183 7.38519 46.8927 7.32259 46.9255C7.26214 46.9562 7.13693 47.0065 6.88652 47.0918H3.9333C1.1053 47.0918 0.977928 47.0918 0.863513 47.0524C0.798749 47.0284 0.69081 46.9824 0.626047 46.9496C0.561283 46.9146 0.455503 46.838 0.39074 46.7768C0.325976 46.7155 0.235307 46.6061 0.189973 46.5339C0.144638 46.4617 0.0820337 46.3261 0.0539696 46.232C0.0107939 46.0942 0 46.0176 0 45.8163C0 45.6479 0.0129527 45.521 0.0410169 45.4072C0.0626047 45.3175 0.110098 45.1797 0.144638 45.1009C0.179179 45.0222 0.572077 44.3286 1.01463 43.5585C1.45934 42.7884 1.86735 42.0796 1.92132 41.9833C1.97744 41.887 2.3466 41.246 2.74165 40.5612C3.13671 39.8764 3.78219 38.7585 4.17293 38.0781C4.56582 37.3976 4.91771 36.7873 4.95441 36.7216C4.9911 36.656 5.41423 35.9231 5.89348 35.0917L6.22294 34.5202C6.63573 33.8042 7.08291 33.0284 7.32475 32.6085C7.63345 32.0725 7.91841 31.5803 7.95511 31.5146C7.99181 31.449 8.38039 30.7752 8.81863 30.016C9.2547 29.2568 9.90018 28.141 10.2499 27.5328C10.5996 26.9246 10.9321 26.3492 10.9882 26.253C11.0422 26.1567 11.1415 25.9839 11.2084 25.8701C11.2732 25.7563 11.6142 25.1656 11.964 24.5574C12.3137 23.9492 12.9916 22.7744 13.4708 21.943C13.9501 21.1116 14.6581 19.8821 15.0467 19.2082C15.4353 18.5344 16.0743 17.4274 16.465 16.7469C16.8021 16.1633 17.3488 15.2142 17.7727 14.4782L17.9719 14.1325C18.4079 13.3755 19.0038 12.3407 19.2952 11.8353C19.5845 11.3299 19.8608 10.8486 19.9104 10.7633C19.9579 10.678 20.0616 10.5467 20.1393 10.4679C20.217 10.3892 20.34 10.2951 20.4113 10.2557C20.4825 10.2185 20.5991 10.1704 20.6703 10.1529C20.7416 10.1332 20.8689 10.1179 20.951 10.1179C21.033 10.1179 21.1561 10.1332 21.2208 10.1529C21.2856 10.1726 21.3979 10.2185 21.4669 10.2557C21.5382 10.2951 21.6461 10.3739 21.7066 10.4351C21.7756 10.5029 21.8922 10.6692 22.0131 10.8727C22.121 11.0521 22.3974 11.5159 22.6305 11.901C22.8615 12.286 23.2803 12.9839 23.5631 13.4543C23.8438 13.9247 24.1546 14.441 24.2539 14.6029C24.3511 14.7648 24.7893 15.4933 25.2254 16.2219C25.6636 16.9504 26.2076 17.8562 26.4343 18.2347C26.661 18.6131 26.9869 19.1557 27.1575 19.4379C27.3259 19.7202 27.5979 20.173 27.7619 20.4443C27.926 20.7156 28.1786 21.1379 28.3275 21.3851C28.4765 21.6323 28.8867 22.3149 29.2407 22.9056C29.5926 23.4963 29.9337 24.0608 29.9963 24.1636C30.0589 24.2664 30.1776 24.4633 30.2597 24.6012C30.3438 24.739 30.6871 25.31 31.0217 25.8701C31.3585 26.4302 31.7514 27.0865 31.8982 27.3294C32.1637 27.7691 32.1659 27.7735 32.127 27.8238C32.1076 27.8523 32.0363 27.9485 31.9694 28.0382C31.9046 28.1279 31.814 28.2592 31.773 28.3314C31.7298 28.4036 31.6564 28.5458 31.6089 28.6486C31.5614 28.7514 31.4945 28.9286 31.4578 29.0424C31.4211 29.1562 31.3757 29.364 31.3563 29.5019C31.3282 29.69 31.3218 29.8344 31.3304 30.0816C31.3369 30.261 31.3585 30.4886 31.3779 30.5848C31.3952 30.6811 31.4276 30.8145 31.447 30.8802C31.4643 30.9458 31.5161 31.088 31.5571 31.1974C31.6003 31.3068 31.678 31.4731 31.7298 31.5693C31.7816 31.6656 31.8701 31.8078 31.9241 31.8866C31.9802 31.9653 32.1076 32.1163 32.209 32.2235C32.3105 32.3285 32.4746 32.4795 32.576 32.556C32.6775 32.6348 32.8761 32.7551 33.0186 32.8273C33.1611 32.8995 33.351 32.9827 33.4395 33.0111C33.528 33.0417 33.69 33.0855 33.7957 33.1095C33.9015 33.1336 34.0958 33.1642 34.2275 33.1774C34.3592 33.1905 34.5578 33.1949 34.67 33.1883C34.7823 33.1796 34.9917 33.1511 35.1342 33.1227C35.2767 33.092 35.471 33.0395 35.5659 33.0045C35.6609 32.9695 35.7948 32.9148 35.8617 32.8842C35.9308 32.8536 36.0625 32.7814 36.1531 32.7245C36.246 32.6698 36.3992 32.5626 36.4942 32.4882C36.5892 32.4138 36.7446 32.2694 36.8396 32.1666C36.9346 32.066 37.062 31.9084 37.1224 31.8187C37.185 31.729 37.2779 31.5737 37.3318 31.4709C37.3836 31.3681 37.4592 31.1974 37.4959 31.088C37.5347 30.9786 37.5844 30.808 37.606 30.7051C37.6297 30.6023 37.6578 30.4054 37.6707 30.2676C37.688 30.086 37.688 29.946 37.6707 29.7644C37.66 29.6266 37.6297 29.4253 37.6081 29.3159C37.5844 29.2065 37.5347 29.0315 37.498 28.9221C37.4592 28.8127 37.3858 28.642 37.3361 28.5392C37.2865 28.4364 37.185 28.2657 37.1138 28.1564C37.0425 28.047 36.9152 27.8851 36.8331 27.7954C36.7511 27.7057 36.6173 27.5766 36.5352 27.5088C36.4532 27.4409 36.328 27.3469 36.2567 27.2987C36.1855 27.2506 36.0733 27.1806 36.0085 27.1434C35.9437 27.1084 35.8271 27.0515 35.7494 27.0187C35.6717 26.9859 35.5314 26.9356 35.4364 26.9071C35.3414 26.8787 35.1817 26.8371 35.0802 26.8174C34.9485 26.7912 34.7845 26.7802 34.5081 26.7802C34.2297 26.778 34.0656 26.789 33.9253 26.8174C33.8195 26.8371 33.7115 26.859 33.6878 26.8655C33.6533 26.8765 33.6317 26.8568 33.5885 26.7846C33.5561 26.7321 31.5117 23.2732 29.0421 19.0988C26.5725 14.9223 24.1654 10.853 23.6926 10.0523C23.2199 9.25152 22.7406 8.43984 22.6262 8.24732C22.5118 8.05479 22.3887 7.82288 22.3499 7.73318C22.3132 7.64348 22.2549 7.4794 22.2225 7.37219C22.1729 7.20373 22.1642 7.13591 22.1642 6.90182C22.1642 6.65241 22.1707 6.60865 22.2355 6.40956C22.2743 6.28923 22.324 6.1514 22.3477 6.10327C22.3715 6.05513 23.0191 4.98311 23.7855 3.71856C24.5497 2.45619 25.2016 1.38417 25.234 1.33604C25.2642 1.29009 25.3268 1.2179 25.3722 1.17851C25.4153 1.13695 25.4887 1.08006 25.5319 1.04943Z" fill="#1D8EE1"/>
</svg>
