<svg width="20" height="20" viewBox="0 0 20 20" fill="none" xmlns="http://www.w3.org/2000/svg">
<path fill-rule="evenodd" clip-rule="evenodd" d="M10.3908 12.9419L12.8908 15.4419C13.1348 15.686 13.5305 15.686 13.7746 15.4419L16.2746 12.9419C16.5187 12.6978 16.5187 12.3022 16.2746 12.0581C16.0305 11.814 15.6348 11.814 15.3908 12.0581L13.9577 13.4911V5C13.9577 4.65483 13.6778 4.375 13.3327 4.375C12.9875 4.375 12.7077 4.65483 12.7077 5V13.4911L11.2746 12.0581C11.0305 11.814 10.6348 11.814 10.3908 12.0581C10.1467 12.3022 10.1467 12.6978 10.3908 12.9419ZM7.10796 4.55806C6.86388 4.31398 6.46815 4.31398 6.22407 4.55806L3.72407 7.05806C3.48 7.30213 3.48 7.69787 3.72407 7.94194C3.96815 8.18602 4.36388 8.18602 4.60796 7.94194L6.04101 6.50888V15C6.04101 15.3452 6.32084 15.625 6.66601 15.625C7.01119 15.625 7.29101 15.3452 7.29101 15V6.50888L8.7241 7.94194C8.96818 8.18602 9.36385 8.18602 9.60793 7.94194C9.85201 7.69787 9.85201 7.30213 9.60793 7.05806L7.10796 4.55806Z" fill="#060606"/>
</svg>
