<svg viewBox="0 0 18 18" fill="none" xmlns="http://www.w3.org/2000/svg">
<path d="M13.7465 16.875C13.0603 16.875 12.0963 16.6268 10.6528 15.8203C8.89744 14.8359 7.53971 13.9272 5.79385 12.1859C4.11057 10.5036 3.29143 9.4145 2.14498 7.32833C0.849829 4.97286 1.07061 3.73817 1.31741 3.21048C1.61131 2.57977 2.04514 2.20255 2.60588 1.82813C2.92438 1.61946 3.26143 1.44058 3.61276 1.29376C3.64791 1.27864 3.68061 1.26423 3.70979 1.25122C3.88381 1.17282 4.14748 1.05435 4.48147 1.18091C4.70436 1.26458 4.90334 1.43579 5.21483 1.74341C5.85362 2.37341 6.72655 3.77649 7.04858 4.46556C7.26479 4.92997 7.40787 5.23653 7.40823 5.58036C7.40823 5.9829 7.20573 6.29333 6.95998 6.62837C6.91393 6.6913 6.86823 6.75142 6.82393 6.80977C6.55639 7.16134 6.49768 7.26294 6.53635 7.44434C6.61475 7.80892 7.1994 8.89419 8.16022 9.8529C9.12104 10.8116 10.175 11.3593 10.541 11.4374C10.7301 11.4778 10.8338 11.4166 11.1967 11.1396C11.2487 11.0999 11.3021 11.0588 11.358 11.0176C11.7328 10.7388 12.0288 10.5416 12.4219 10.5416H12.424C12.766 10.5416 13.0589 10.69 13.544 10.9347C14.1769 11.2539 15.6221 12.1156 16.256 12.755C16.5643 13.0658 16.7362 13.2641 16.8203 13.4866C16.9468 13.8217 16.8276 14.0843 16.7499 14.2601C16.7369 14.2893 16.7225 14.3213 16.7074 14.3568C16.5594 14.7075 16.3795 15.0438 16.1699 15.3615C15.7962 15.9205 15.4175 16.3533 14.7854 16.6475C14.4608 16.8011 14.1056 16.8789 13.7465 16.875Z" fill="currentColor"/>
</svg>
