<svg viewBox="0 0 40 40" fill="none" xmlns="http://www.w3.org/2000/svg">
<path d="M0 26.6406C0 29.0138 1.92375 30.9375 4.29688 30.9375H35.7031C38.0762 30.9375 40 29.0138 40 26.6406H0Z" fill="currentColor"/>
<path d="M12.1875 19.2188C12.8347 19.2188 13.3594 18.6941 13.3594 18.0469C13.3594 17.3997 12.8347 16.875 12.1875 16.875C11.5403 16.875 11.0156 17.3997 11.0156 18.0469C11.0156 18.6941 11.5403 19.2188 12.1875 19.2188Z" fill="currentColor"/>
<path d="M15.7035 5.9375H11.2285C10.419 5.9375 9.68398 6.4468 9.39977 7.20484L8.41016 9.84375H15.7035V5.9375Z" fill="currentColor"/>
<path d="M23.3594 7.03125C22.8458 6.34633 22.028 5.9375 21.1719 5.9375H18.0469V9.84375H25.4688L23.3594 7.03125Z" fill="currentColor"/>
<path d="M35.7031 0.078125H4.29688C1.92758 0.078125 0 2.0057 0 4.375V24.2969H40V4.375C40 2.0057 38.0724 0.078125 35.7031 0.078125ZM34.4531 18.0469C34.4531 18.6941 33.9284 19.2188 33.2812 19.2188H31.1266C30.6428 20.5827 29.3402 21.5625 27.8125 21.5625C26.2848 21.5625 24.9822 20.5827 24.4984 19.2188H15.5016C15.0178 20.5827 13.7152 21.5625 12.1875 21.5625C10.6598 21.5625 9.35719 20.5827 8.87344 19.2188H6.71875C6.07156 19.2188 5.54688 18.6941 5.54688 18.0469V11.0156C5.54688 10.8751 5.57211 10.7357 5.62148 10.6041L7.20484 6.38188C7.83023 4.71422 9.44703 3.59375 11.2281 3.59375H21.1719C22.7618 3.59375 24.2805 4.35313 25.2344 5.625L28.3984 9.84375H28.5938C31.8246 9.84375 34.4531 12.4723 34.4531 15.7031V18.0469Z" fill="currentColor"/>
<path d="M27.8125 19.2188C28.4597 19.2188 28.9844 18.6941 28.9844 18.0469C28.9844 17.3997 28.4597 16.875 27.8125 16.875C27.1653 16.875 26.6406 17.3997 26.6406 18.0469C26.6406 18.6941 27.1653 19.2188 27.8125 19.2188Z" fill="currentColor"/>
<path d="M28.5938 12.1875H7.89062V16.875H8.87344C9.35719 15.511 10.6598 14.5312 12.1875 14.5312C13.7152 14.5312 15.0178 15.511 15.5016 16.875H24.4984C24.9822 15.511 26.2848 14.5312 27.8125 14.5312C29.3402 14.5312 30.6428 15.511 31.1266 16.875H32.1094V15.7031C32.1094 13.7646 30.5323 12.1875 28.5938 12.1875Z" fill="currentColor"/>
<path d="M32.5 37.5781H30.3561C28.4548 36.8771 27.0954 35.2322 26.736 33.2812H13.2641C12.9046 35.2322 11.5452 36.8771 9.64398 37.5781H7.5C6.85281 37.5781 6.32812 38.1028 6.32812 38.75C6.32812 39.3972 6.85281 39.9219 7.5 39.9219H32.5C33.1472 39.9219 33.6719 39.3972 33.6719 38.75C33.6719 38.1028 33.1472 37.5781 32.5 37.5781Z" fill="currentColor"/>
</svg>
