<svg viewBox="0 0 40 40" fill="none" xmlns="http://www.w3.org/2000/svg">
<path fill-rule="evenodd" clip-rule="evenodd" d="M32.4802 13.5594L37.9494 19.0286C39.2908 20.37 39.5924 22.5283 38.3379 23.5178L31.277 29.0873C30.0225 30.0769 28.129 30.04 26.7878 28.6988L22.81 24.7212C21.4688 23.3799 21.4318 21.4865 22.4215 20.2319L27.991 13.171C28.9807 11.9163 31.1388 12.2181 32.4802 13.5594ZM30.9691 16.3856L35.1232 20.5398C35.6214 21.038 35.6214 21.8532 35.1232 22.3514C34.625 22.8496 33.8098 22.8496 33.3116 22.3514L29.1574 18.1972C28.6593 17.699 28.6593 16.8838 29.1574 16.3856C29.6556 15.8874 30.4709 15.8874 30.9691 16.3856Z" fill="currentColor"/>
<path fill-rule="evenodd" clip-rule="evenodd" d="M28.9603 0C34.1532 0 38.3628 4.20963 38.3628 9.40253C38.3628 11.8416 37.434 14.0637 35.9109 15.7345L34.8104 14.6342C36.0529 13.2457 36.8087 11.4126 36.8087 9.40253C36.8087 5.06741 33.2953 1.55408 28.9603 1.55408C26.9477 1.55408 25.1125 2.31165 23.7235 3.55679C23.3676 3.1781 22.9905 2.81694 22.5986 2.4794C24.2729 0.940087 26.5067 0 28.9603 0ZM23.8384 15.3488C24.0967 15.5714 24.3695 15.7776 24.6553 15.9656L23.6897 17.1899C23.4061 16.9975 23.1336 16.79 22.8734 16.5687C23.1952 16.1811 23.5206 15.7724 23.8384 15.3488Z" fill="currentColor"/>
<path fill-rule="evenodd" clip-rule="evenodd" d="M6.22712 24.4081C8.40644 25.7781 10.3754 26.4337 12.7643 24.7939C16.2256 22.4179 26.8258 12.9901 25.6307 8.40859C24.831 5.34454 21.2852 1.79873 18.2212 0.999087C13.6397 -0.196045 4.21176 10.404 1.8359 13.8656C0.195911 16.2544 0.851609 18.2233 2.2216 20.4024C3.25018 22.0384 4.58999 23.3793 6.22712 24.4081ZM7.73607 21.187C8.98371 21.9714 10.111 22.3467 11.4787 21.4079C13.4605 20.0475 19.5293 14.6498 18.845 12.0268C18.3873 10.2726 16.3572 8.2425 14.6029 7.78463C11.9799 7.10042 6.58219 13.1693 5.22189 15.151C4.283 16.5187 4.65837 17.6459 5.4427 18.8936C6.03168 19.8302 6.79876 20.598 7.73607 21.187ZM21.3854 5.24424C22.1175 5.97634 22.1175 7.16308 21.3854 7.89518C20.6534 8.62719 19.4666 8.62719 18.7346 7.89518C18.0026 7.16308 18.0026 5.97634 18.7346 5.24424C19.4666 4.51223 20.6534 4.51223 21.3854 5.24424Z" fill="currentColor"/>
<path fill-rule="evenodd" clip-rule="evenodd" d="M10.6562 8.40161L18.2283 15.9738L16.6586 17.5436L9.08637 9.97147L10.6562 8.40161ZM6.97708 12.0126L14.6175 19.6529L13.0477 21.2228L5.40723 13.5823L6.97708 12.0126Z" fill="currentColor"/>
<path fill-rule="evenodd" clip-rule="evenodd" d="M26.61 29.7228L25.0708 31.262L23.9054 31.121L21.5352 33.4911L19.4686 33.765L19.1948 35.8315L17.1283 36.1053L17.1106 37.9158L14.7879 38.4457L14.5141 40.0001L11.5687 39.9402L11.5088 36.9947L13.0632 36.721L13.5931 34.3983L15.4036 34.3806L15.6774 32.3141L17.7439 32.0402L18.0177 29.9736L20.3879 27.6035L20.2469 26.4381L21.7861 24.8989C21.907 25.0557 22.0392 25.2062 22.1821 25.3491L26.1598 29.3268C26.3027 29.4697 26.4532 29.6018 26.61 29.7228Z" fill="currentColor"/>
</svg>
