<svg viewBox="0 0 22 22" fill="none" xmlns="http://www.w3.org/2000/svg">
<path d="M2.57586 2.57583C1.27419 3.86833 1.27419 8.07583 2.57586 9.34083C3.55294 10.0546 4.75142 10.3989 5.95836 10.3125C7.1653 10.3989 8.36378 10.0546 9.34086 9.34083C10.6425 8.04833 10.6425 3.84083 9.34086 2.57583C8.03919 1.31083 3.86836 1.27416 2.57586 2.57583Z" fill="currentColor"/>
<path d="M2.57586 12.6592C1.27419 13.9517 1.27419 18.1592 2.57586 19.4242C3.55294 20.138 4.75142 20.4822 5.95836 20.3958C7.1653 20.4822 8.36378 20.138 9.34086 19.4242C10.6425 18.1317 10.6425 13.9242 9.34086 12.6592C8.03919 11.3942 3.86836 11.3575 2.57586 12.6592Z" fill="currentColor"/>
<path d="M16.0418 10.3125C17.2488 10.3989 18.4472 10.0546 19.4243 9.34083C20.726 8.04833 20.726 3.84083 19.4243 2.57583C18.1227 1.31083 13.9243 1.27416 12.6593 2.57583C11.3943 3.8775 11.3577 8.07583 12.6593 9.34083C13.6364 10.0546 14.8349 10.3989 16.0418 10.3125Z" fill="currentColor"/>
<path d="M12.6594 12.6592C11.3577 13.9517 11.3577 18.1592 12.6594 19.4242C13.6364 20.138 14.8349 20.4822 16.0419 20.3958C17.2488 20.4822 18.4473 20.138 19.4244 19.4242C20.726 18.1317 20.726 13.9242 19.4244 12.6592C18.1227 11.3942 13.9519 11.3575 12.6594 12.6592Z" fill="currentColor"/>
</svg>
