<svg viewBox="0 0 22 22" fill="none" xmlns="http://www.w3.org/2000/svg">
<path d="M11 22C17.0751 22 22 17.0751 22 11C22 4.92487 17.0751 0 11 0C4.92487 0 0 4.92487 0 11C0 17.0751 4.92487 22 11 22Z" fill="#D80027"/>
<path d="M6.01992 6.69449L6.96953 9.61636H10.0418L7.5582 11.4253L8.50781 14.3472L6.01992 12.5425L3.53203 14.3472L4.48594 11.4253L1.99805 9.61636H5.07031L6.01992 6.69449Z" fill="#FFDA44"/>
<path d="M13.0412 17.0371L12.315 16.1433L11.2408 16.5601L11.8639 15.5933L11.1377 14.6953L12.2506 14.9918L12.8779 14.025L12.9381 15.1765L14.0553 15.473L12.9768 15.8855L13.0412 17.0371Z" fill="#FFDA44"/>
<path d="M14.485 14.416L14.8287 13.316L13.8877 12.65L15.0393 12.6328L15.3787 11.5328L15.7525 12.6242L16.9041 12.6113L15.9803 13.2988L16.3498 14.3902L15.4088 13.7242L14.485 14.416Z" fill="#FFDA44"/>
<path d="M16.4311 8.07378L15.924 9.10933L16.749 9.91284L15.6104 9.74956L15.1033 10.7808L14.9057 9.64644L13.7627 9.48315L14.7854 8.94604L14.5877 7.80737L15.4127 8.61089L16.4311 8.07378Z" fill="#FFDA44"/>
<path d="M13.0715 4.93707L12.9855 6.08434L14.0555 6.51832L12.934 6.79332L12.8523 7.94489L12.2465 6.9652L11.125 7.2402L11.8684 6.35934L11.2582 5.38395L12.3281 5.81793L13.0715 4.93707Z" fill="#FFDA44"/>
</svg>
