<svg viewBox="0 0 40 40" fill="none" xmlns="http://www.w3.org/2000/svg">
<path d="M6.40686 25.718L2.6239 33.2827C2.44201 33.6462 2.46154 34.078 2.67486 34.4235C2.88879 34.7686 3.26538 34.9789 3.67157 34.9789H9.36218L12.7765 39.5312C12.9983 39.8281 13.3466 39.9999 13.7131 39.9999C14.1998 39.9999 14.5834 39.7094 14.7617 39.3524L18.3264 32.2225C13.5068 31.7617 9.2575 29.3179 6.40686 25.718Z" fill="currentColor"/>
<path d="M37.3549 33.2827L33.5719 25.718C30.7213 29.3179 26.472 31.7617 21.6523 32.2225L25.2174 39.3524C25.3953 39.7094 25.7789 39.9999 26.2657 39.9999C26.6322 39.9999 26.9807 39.8281 27.2026 39.5312L30.6166 34.9789H36.3072C36.7134 34.9789 37.09 34.7686 37.3039 34.4235C37.5172 34.078 37.5367 33.6462 37.3549 33.2827Z" fill="currentColor"/>
<path d="M21.9509 11.5346L19.9896 8.40137L18.0288 11.5346C17.868 11.7916 17.6138 11.9762 17.3199 12.0497L13.7344 12.9467L16.108 15.7799C16.3027 16.0121 16.3998 16.3109 16.3787 16.6133L16.1233 20.3005L19.5513 18.9186C19.7143 18.853 20.0475 18.7654 20.4275 18.9186L23.8558 20.3005L23.6007 16.6133C23.58 16.3109 23.677 16.0121 23.8717 15.7799L26.2454 12.9467L22.6599 12.0497C22.366 11.9762 22.1118 11.7916 21.9509 11.5346Z" fill="currentColor"/>
<path d="M34.9692 14.9792C34.9692 6.71967 28.2496 0 19.99 0C11.7304 0 5.01074 6.71967 5.01074 14.9792C5.01074 23.2385 11.7304 29.9585 19.99 29.9585C28.2496 29.9585 34.9692 23.2388 34.9692 14.9792ZM29.2448 13.0167L25.972 16.9229L26.3236 22.0065C26.3514 22.4094 26.1701 22.7982 25.8436 23.0356C25.5167 23.2727 25.091 23.3252 24.7166 23.1744L19.99 21.2692L15.2634 23.1744C15.1368 23.2254 14.6323 23.3957 14.1364 23.0356C13.8099 22.7982 13.6286 22.4094 13.6564 22.0065L14.0085 16.9229L10.7358 13.017C10.4764 12.7072 10.3947 12.2861 10.5195 11.9022C10.6443 11.5182 10.958 11.2253 11.3499 11.1273L16.2931 9.89075L18.9966 5.57098C19.2109 5.22888 19.5862 5.02106 19.99 5.02106C20.3937 5.02106 20.7691 5.22888 20.9833 5.57098L23.6875 9.89075L28.6307 11.1273C29.0226 11.2253 29.3363 11.5182 29.4611 11.9022C29.5859 12.2861 29.5042 12.7072 29.2448 13.0167Z" fill="currentColor"/>
</svg>
