<svg viewBox="0 0 40 40" fill="none" xmlns="http://www.w3.org/2000/svg">
<path d="M34.4833 24.8999C33.5167 25.4999 32.6 25.9666 31.7833 26.2999C31.2167 26.5499 30.6 26.6666 30 26.6666C29.4 26.6666 28.7833 26.5499 28.2167 26.2999C26.7667 25.6999 25 24.6999 23.2833 23.3333H7.36667L9.83333 17.6666C10.1 17.0666 10.7 16.6666 11.35 16.6666H17.9167C17.45 15.6333 17.0833 14.5166 16.8833 13.3333H11.35C9.36667 13.3333 7.56667 14.5166 6.76667 16.3333L3.46667 23.9166C3.45 23.9499 3.46667 23.9833 3.45 24.0333C1.41667 25.0666 0 27.1499 0 29.5833V35.8333C0 38.1333 1.86667 39.9999 4.16667 39.9999C6.46667 39.9999 8.33333 38.1333 8.33333 35.8333V34.9999H28.3333V35.8333C28.3333 38.1333 30.2 39.9999 32.5 39.9999C34.8 39.9999 36.6667 38.1333 36.6667 35.8333V29.5833C36.6667 27.6999 35.8167 26.0166 34.4833 24.8999ZM10 31.6666H6.66667C5.75 31.6666 5 30.9166 5 29.9999C5 29.0833 5.75 28.3333 6.66667 28.3333H10C10.9167 28.3333 11.6667 29.0833 11.6667 29.9999C11.6667 30.9166 10.9167 31.6666 10 31.6666ZM30 31.6666H26.6667C25.75 31.6666 25 30.9166 25 29.9999C25 29.0833 25.75 28.3333 26.6667 28.3333H30C30.9167 28.3333 31.6667 29.0833 31.6667 29.9999C31.6667 30.9166 30.9167 31.6666 30 31.6666Z" fill="currentColor"/>
<path d="M39.1517 3.04343L30.4017 0.0667676C30.1417 -0.0232324 29.8583 -0.0232324 29.5983 0.0667676L20.8483 3.04343C20.34 3.2151 20 3.69177 20 4.22677V10.9234C20 19.0968 29.1233 23.0701 29.5117 23.2351C29.825 23.3668 30.175 23.3668 30.4883 23.2351C30.8767 23.0701 40 19.0968 40 10.9234V4.22677C40 3.69177 39.66 3.2151 39.1517 3.04343ZM35.4767 9.36344L30.8933 15.1968C30.31 15.9418 29.2167 16.0501 28.5 15.4334L25.5833 12.9334C24.8833 12.3351 24.8017 11.2818 25.4033 10.5834C26.0017 9.8851 27.055 9.8051 27.7517 10.4034L29.3483 11.7718L32.8567 7.30677C33.425 6.58344 34.4717 6.4551 35.1967 7.02677C35.92 7.59177 36.0467 8.6401 35.4767 9.36344Z" fill="currentColor"/>
</svg>
