<svg viewBox="0 0 20 20" fill="none" xmlns="http://www.w3.org/2000/svg">
<path fill-rule="evenodd" clip-rule="evenodd" d="M10.3915 12.9419L12.8915 15.4419C13.1356 15.686 13.5312 15.686 13.7753 15.4419L16.2753 12.9419C16.5194 12.6978 16.5194 12.3022 16.2753 12.0581C16.0312 11.814 15.6356 11.814 15.3915 12.0581L13.9584 13.4911V5C13.9584 4.65483 13.6786 4.375 13.3334 4.375C12.9882 4.375 12.7084 4.65483 12.7084 5V13.4911L11.2753 12.0581C11.0312 11.814 10.6356 11.814 10.3915 12.0581C10.1474 12.3022 10.1474 12.6978 10.3915 12.9419ZM7.10869 4.55806C6.86461 4.31398 6.46888 4.31398 6.2248 4.55806L3.7248 7.05806C3.48073 7.30213 3.48073 7.69787 3.7248 7.94194C3.96888 8.18602 4.36461 8.18602 4.60869 7.94194L6.04175 6.50888V15C6.04175 15.3452 6.32157 15.625 6.66675 15.625C7.01192 15.625 7.29175 15.3452 7.29175 15V6.50888L8.72483 7.94194C8.96891 8.18602 9.36458 8.18602 9.60866 7.94194C9.85275 7.69787 9.85275 7.30213 9.60866 7.05806L7.10869 4.55806Z" fill="currentColor"/>
</svg>
