<svg viewBox="0 0 25 25" fill="none" xmlns="http://www.w3.org/2000/svg">
<path d="M23.4375 6.24993C23.4375 5.42113 23.1083 4.62627 22.5222 4.04022C21.9362 3.45417 21.1413 3.12493 20.3125 3.12493H19.5312V2.36565C19.5312 1.94524 19.208 1.5844 18.7876 1.56341C18.682 1.55832 18.5764 1.57473 18.4773 1.61164C18.3782 1.64856 18.2876 1.70521 18.2111 1.77816C18.1345 1.85112 18.0735 1.93886 18.0319 2.03606C17.9902 2.13327 17.9688 2.23792 17.9688 2.34368V3.12493H7.03125V2.36565C7.03125 1.94524 6.70801 1.5844 6.2876 1.56341C6.18197 1.55832 6.0764 1.57473 5.9773 1.61164C5.87819 1.64856 5.78762 1.70521 5.71106 1.77816C5.63449 1.85112 5.57354 1.93886 5.53189 2.03606C5.49024 2.13327 5.46876 2.23792 5.46875 2.34368V3.12493H4.6875C3.8587 3.12493 3.06384 3.45417 2.47779 4.04022C1.89174 4.62627 1.5625 5.42113 1.5625 6.24993V6.83587C1.5625 6.88767 1.58308 6.93734 1.61971 6.97397C1.65633 7.0106 1.70601 7.03118 1.75781 7.03118H23.2422C23.294 7.03118 23.3437 7.0106 23.3803 6.97397C23.4169 6.93734 23.4375 6.88767 23.4375 6.83587V6.24993ZM1.5625 20.3124C1.5625 21.1412 1.89174 21.9361 2.47779 22.5221C3.06384 23.1082 3.8587 23.4374 4.6875 23.4374H20.3125C21.1413 23.4374 21.9362 23.1082 22.5222 22.5221C23.1083 21.9361 23.4375 21.1412 23.4375 20.3124V8.78899C23.4375 8.73719 23.4169 8.68751 23.3803 8.65088C23.3437 8.61425 23.294 8.59368 23.2422 8.59368H1.75781C1.70601 8.59368 1.65633 8.61425 1.61971 8.65088C1.58308 8.68751 1.5625 8.73719 1.5625 8.78899V20.3124Z" fill="currentColor" />
</svg>
