<svg viewBox="0 0 96 96" fill="none" xmlns="http://www.w3.org/2000/svg">
<rect x="31" y="31" width="36" height="32" fill="white"/>
<path d="M92.2582 20.0184C88.7929 15.8991 82.3949 14.2188 70.1763 14.2188H25.8228C13.3245 14.2188 6.81817 16.0074 3.36588 20.3931C0 24.6691 0 30.9695 0 39.6894V56.3095C0 73.2027 3.9936 81.7798 25.8228 81.7798H70.1766C80.7725 81.7798 86.644 80.2971 90.4425 76.6618C94.338 72.9339 96 66.8472 96 56.3095V39.6894C96 30.4935 95.7396 24.156 92.2582 20.0184ZM61.6323 50.294L41.4915 60.8202C41.0412 61.0556 40.5489 61.1723 40.0571 61.1723C39.5003 61.1723 38.9447 61.0225 38.4526 60.7245C37.5261 60.1631 36.9603 59.1588 36.9603 58.0756V37.0906C36.9603 36.0092 37.5245 35.0058 38.4492 34.4441C39.3742 33.8823 40.5247 33.8439 41.4844 34.3425L61.6252 44.8009C62.6499 45.333 63.2934 46.3908 63.295 47.545C63.2962 48.7001 62.6555 49.7595 61.6323 50.294Z" fill="#FF0000"/>
</svg>
