<svg width="40" height="40" viewBox="0 0 40 40" fill="none" xmlns="http://www.w3.org/2000/svg">
<path d="M11.25 31.25H16.25V37.5H11.25V31.25Z" fill="white"/>
<path d="M30 21.25C28.3424 21.25 26.7527 21.9085 25.5806 23.0806C24.4085 24.2527 23.75 25.8424 23.75 27.5C23.75 33.0625 29.025 37.0875 29.25 37.25C29.4664 37.4123 29.7295 37.5 30 37.5C30.2705 37.5 30.5336 37.4123 30.75 37.25C30.975 37.0875 36.25 33.0625 36.25 27.5C36.25 25.8424 35.5915 24.2527 34.4194 23.0806C33.2473 21.9085 31.6576 21.25 30 21.25ZM30 30C29.337 30 28.7011 29.7366 28.2322 29.2678C27.7634 28.7989 27.5 28.163 27.5 27.5C27.5 26.837 27.7634 26.2011 28.2322 25.7322C28.7011 25.2634 29.337 25 30 25C30.663 25 31.2989 25.2634 31.7678 25.7322C32.2366 26.2011 32.5 26.837 32.5 27.5C32.5 28.163 32.2366 28.7989 31.7678 29.2678C31.2989 29.7366 30.663 30 30 30Z" fill="white"/>
<path d="M23.75 21.3875V5C23.75 4.33696 23.4866 3.70107 23.0178 3.23223C22.5489 2.76339 21.913 2.5 21.25 2.5H6.25C5.58696 2.5 4.95107 2.76339 4.48223 3.23223C4.01339 3.70107 3.75 4.33696 3.75 5V36.25C3.75 36.5815 3.8817 36.8995 4.11612 37.1339C4.35054 37.3683 4.66848 37.5 5 37.5H8.75V30C8.75 29.6685 8.8817 29.3505 9.11612 29.1161C9.35054 28.8817 9.66848 28.75 10 28.75H17.5C17.8315 28.75 18.1495 28.8817 18.3839 29.1161C18.6183 29.3505 18.75 29.6685 18.75 30V37.5H22.5C22.8315 37.5 23.1495 37.3683 23.3839 37.1339C23.6183 36.8995 23.75 36.5815 23.75 36.25V35C22.1779 32.8101 21.3062 30.1952 21.25 27.5C21.2529 25.2142 22.1502 23.0202 23.75 21.3875ZM11.25 25H10C9.66848 25 9.35054 24.8683 9.11612 24.6339C8.8817 24.3995 8.75 24.0815 8.75 23.75C8.75 23.4185 8.8817 23.1005 9.11612 22.8661C9.35054 22.6317 9.66848 22.5 10 22.5H11.25C11.5815 22.5 11.8995 22.6317 12.1339 22.8661C12.3683 23.1005 12.5 23.4185 12.5 23.75C12.5 24.0815 12.3683 24.3995 12.1339 24.6339C11.8995 24.8683 11.5815 25 11.25 25ZM11.25 20H10C9.66848 20 9.35054 19.8683 9.11612 19.6339C8.8817 19.3995 8.75 19.0815 8.75 18.75C8.75 18.4185 8.8817 18.1005 9.11612 17.8661C9.35054 17.6317 9.66848 17.5 10 17.5H11.25C11.5815 17.5 11.8995 17.6317 12.1339 17.8661C12.3683 18.1005 12.5 18.4185 12.5 18.75C12.5 19.0815 12.3683 19.3995 12.1339 19.6339C11.8995 19.8683 11.5815 20 11.25 20ZM11.25 15H10C9.66848 15 9.35054 14.8683 9.11612 14.6339C8.8817 14.3995 8.75 14.0815 8.75 13.75C8.75 13.4185 8.8817 13.1005 9.11612 12.8661C9.35054 12.6317 9.66848 12.5 10 12.5H11.25C11.5815 12.5 11.8995 12.6317 12.1339 12.8661C12.3683 13.1005 12.5 13.4185 12.5 13.75C12.5 14.0815 12.3683 14.3995 12.1339 14.6339C11.8995 14.8683 11.5815 15 11.25 15ZM11.25 10H10C9.66848 10 9.35054 9.8683 9.11612 9.63388C8.8817 9.39946 8.75 9.08152 8.75 8.75C8.75 8.41848 8.8817 8.10054 9.11612 7.86612C9.35054 7.6317 9.66848 7.5 10 7.5H11.25C11.5815 7.5 11.8995 7.6317 12.1339 7.86612C12.3683 8.10054 12.5 8.41848 12.5 8.75C12.5 9.08152 12.3683 9.39946 12.1339 9.63388C11.8995 9.8683 11.5815 10 11.25 10ZM17.5 25H16.25C15.9185 25 15.6005 24.8683 15.3661 24.6339C15.1317 24.3995 15 24.0815 15 23.75C15 23.4185 15.1317 23.1005 15.3661 22.8661C15.6005 22.6317 15.9185 22.5 16.25 22.5H17.5C17.8315 22.5 18.1495 22.6317 18.3839 22.8661C18.6183 23.1005 18.75 23.4185 18.75 23.75C18.75 24.0815 18.6183 24.3995 18.3839 24.6339C18.1495 24.8683 17.8315 25 17.5 25ZM17.5 20H16.25C15.9185 20 15.6005 19.8683 15.3661 19.6339C15.1317 19.3995 15 19.0815 15 18.75C15 18.4185 15.1317 18.1005 15.3661 17.8661C15.6005 17.6317 15.9185 17.5 16.25 17.5H17.5C17.8315 17.5 18.1495 17.6317 18.3839 17.8661C18.6183 18.1005 18.75 18.4185 18.75 18.75C18.75 19.0815 18.6183 19.3995 18.3839 19.6339C18.1495 19.8683 17.8315 20 17.5 20ZM17.5 15H16.25C15.9185 15 15.6005 14.8683 15.3661 14.6339C15.1317 14.3995 15 14.0815 15 13.75C15 13.4185 15.1317 13.1005 15.3661 12.8661C15.6005 12.6317 15.9185 12.5 16.25 12.5H17.5C17.8315 12.5 18.1495 12.6317 18.3839 12.8661C18.6183 13.1005 18.75 13.4185 18.75 13.75C18.75 14.0815 18.6183 14.3995 18.3839 14.6339C18.1495 14.8683 17.8315 15 17.5 15ZM17.5 10H16.25C15.9185 10 15.6005 9.8683 15.3661 9.63388C15.1317 9.39946 15 9.08152 15 8.75C15 8.41848 15.1317 8.10054 15.3661 7.86612C15.6005 7.6317 15.9185 7.5 16.25 7.5H17.5C17.8315 7.5 18.1495 7.6317 18.3839 7.86612C18.6183 8.10054 18.75 8.41848 18.75 8.75C18.75 9.08152 18.6183 9.39946 18.3839 9.63388C18.1495 9.8683 17.8315 10 17.5 10Z" fill="white"/>
</svg>
