<svg width="49" height="18" viewBox="0 0 49 18" fill="none" xmlns="http://www.w3.org/2000/svg">
<path d="M47.5003 5.70001C47.2003 5.20001 46.7003 4.90001 46.2003 4.80001C43.4003 4.40001 39.7003 2.10001 38.0003 1.70001C34.3003 0.80001 25.0003 -0.799991 21.5003 0.50001C15.8003 2.80001 14.4003 4.40001 13.4003 4.80001C9.8003 5.20001 6.6003 5.90001 3.7003 6.80001C3.3003 7.00001 3.0003 7.20001 2.7003 7.50001C1.3003 9.00001 0.800299 10.8 1.0003 12.9C1.2003 14.4 2.5003 15.5 4.0003 15.5C3.8003 14.9 3.7003 14.3 3.7003 13.7C3.7003 10.3 6.5003 7.50001 9.9003 7.50001C13.3003 7.50001 16.1003 10.3 16.1003 13.7C16.1003 14.3 16.0003 15 15.8003 15.5H33.5003C33.3003 14.9 33.2003 14.3 33.2003 13.7C33.2003 10.3 36.0003 7.50001 39.4003 7.50001C42.8003 7.50001 45.6003 10.3 45.6003 13.7C45.6003 14.3 45.5003 14.8 45.4003 15.3C46.1003 15.1 46.9003 14.9 47.8003 14.4C48.3003 14.1 48.6003 13.6 48.7003 13C49.2003 10.5 48.8003 8.00001 47.5003 5.70001ZM26.0003 5.20001L17.1003 5.50001L16.4003 5.30001C18.1003 4.20001 20.0003 3.30001 22.2003 2.40001C22.3003 2.40001 22.4003 2.30001 22.5003 2.30001C23.6003 2.10001 24.8003 2.10001 26.0003 2.10001V5.20001ZM36.6003 4.80001L28.0003 5.10001V2.20001C30.8003 2.30001 33.8003 2.80001 37.2003 3.60001L36.6003 4.80001Z" fill="#1D8EE1"/>
<path d="M5.80078 13.7C5.80078 11.4 7.70078 9.5 10.0008 9.5C12.3008 9.5 14.2008 11.4 14.2008 13.7C14.2008 16 12.3008 17.9 10.0008 17.9C7.70078 17.9 5.80078 16 5.80078 13.7Z" fill="#1D8EE1"/>
<path d="M43.8004 13.7C43.8004 16 41.9004 17.9 39.6004 17.9C37.3004 17.9 35.4004 16 35.4004 13.7C35.4004 11.4 37.3004 9.5 39.6004 9.5C41.9004 9.5 43.8004 11.4 43.8004 13.7Z" fill="#1D8EE1"/>
</svg>
