<svg width="52" height="52" viewBox="0 0 52 52" fill="none" xmlns="http://www.w3.org/2000/svg">
<g clip-path="url(#clip0_714_483)">
<path d="M17.3428 42.4386C17.7964 43.6848 18.7264 44.6997 19.9282 45.2601C21.13 45.8205 22.5053 45.8806 23.7514 45.427L30.5054 42.9687C30.5833 42.9404 30.6468 42.8823 30.6818 42.8072C30.7168 42.732 30.7206 42.6461 30.6922 42.5682L25.7757 29.0601C25.7473 28.9822 25.6892 28.9188 25.6141 28.8838C25.539 28.8488 25.453 28.845 25.3751 28.8734L14.5099 32.828C14.3542 32.8847 14.2273 33.0009 14.1573 33.1511C14.0872 33.3014 14.0797 33.4733 14.1364 33.629L17.3428 42.4386ZM24.7069 26.1236L21.8211 18.1949L24.1703 17.3399L27.0561 25.2685C27.0844 25.3464 27.1426 25.4098 27.2177 25.4449C27.2928 25.4799 27.3787 25.4837 27.4566 25.4553L37.7345 21.7145C38.1347 21.5688 38.5071 21.3559 38.8356 21.0851C39.4334 20.5915 39.8638 19.9251 40.0679 19.1773C40.2721 18.4295 40.2399 17.6368 39.9758 16.908L39.5483 15.7334C39.2081 14.7988 38.5106 14.0377 37.6092 13.6173C36.7079 13.197 35.6764 13.152 34.7418 13.4922L31.7657 14.5754C31.7399 14.5843 31.7123 14.5863 31.6856 14.5813C31.6588 14.5762 31.6339 14.5643 31.6132 14.5466C31.5925 14.529 31.5767 14.5062 31.5675 14.4806C31.5583 14.455 31.556 14.4274 31.5607 14.4006C31.8227 13.0057 31.5477 11.5632 30.7908 10.3626C30.034 9.16189 28.8512 8.29172 27.4797 7.92654C26.1081 7.56135 24.6492 7.72815 23.3955 8.39349C22.1418 9.05883 21.186 10.1735 20.7196 11.514C19.5007 10.7869 18.052 10.5474 16.6639 10.8436C15.2759 11.1398 14.0511 11.9498 13.2352 13.1111C12.4192 14.2725 12.0725 15.6993 12.2645 17.1056C12.4565 18.5119 13.173 19.7936 14.2703 20.6937C14.2912 20.7112 14.3071 20.7339 14.3165 20.7594C14.3259 20.785 14.3285 20.8125 14.324 20.8394C14.3195 20.8662 14.3081 20.8914 14.2908 20.9124C14.2736 20.9335 14.2511 20.9497 14.2257 20.9594L11.2495 22.0427C10.3149 22.3828 9.55376 23.0803 9.13344 23.9817C8.71312 24.8831 8.66809 25.9145 9.00825 26.8491L9.43577 28.0237C9.70193 28.7517 10.1868 29.3796 10.8238 29.8213C11.4609 30.2629 12.219 30.4967 12.9941 30.4906C13.4199 30.4869 13.842 30.4106 14.2422 30.265L24.5201 26.5241C24.598 26.4958 24.6614 26.4376 24.6964 26.3625C24.7315 26.2874 24.7352 26.2015 24.7069 26.1236ZM23.1015 14.4033C22.8901 13.8225 22.8557 13.1921 23.0026 12.5918C23.1495 11.9914 23.4711 11.4481 23.9268 11.0305C24.3825 10.613 24.9518 10.3399 25.5626 10.2459C26.1735 10.1519 26.7985 10.2411 27.3587 10.5023C27.9189 10.7635 28.389 11.185 28.7096 11.7134C29.0303 12.2418 29.187 12.8534 29.16 13.4708C29.1331 14.0883 28.9236 14.6839 28.5582 15.1824C28.1927 15.6808 27.6876 16.0597 27.1068 16.2711L24.1703 17.3399L23.1015 14.4033ZM16.5396 13.4744C16.9314 13.2992 17.3551 13.2065 17.7843 13.2022C18.2135 13.1979 18.639 13.282 19.0343 13.4494C19.4295 13.6168 19.786 13.8638 20.0816 14.175C20.3772 14.4863 20.6055 14.855 20.7522 15.2584L21.8211 18.1949L18.8845 19.2637C18.1245 19.5382 17.2877 19.5075 16.5498 19.1782C15.8119 18.8489 15.2302 18.2466 14.9268 17.4977C14.6235 16.7487 14.622 15.9114 14.9228 15.1614C15.2235 14.4114 15.8031 13.807 16.5399 13.4752L16.5396 13.4744ZM33.442 41.8999L40.196 39.4417C41.4421 38.9881 42.457 38.0581 43.0175 36.8563C43.5779 35.6544 43.6379 34.2792 43.1844 33.0331L39.9779 24.2235C39.9212 24.0677 39.805 23.9409 39.6548 23.8708C39.5045 23.8007 39.3326 23.7932 39.1769 23.8499L28.3117 27.8045C28.2338 27.8329 28.1704 27.891 28.1353 27.9661C28.1003 28.0412 28.0966 28.1272 28.1249 28.2051L33.0414 41.7132C33.0698 41.791 33.1279 41.8545 33.203 41.8895C33.2781 41.9245 33.3641 41.9283 33.442 41.8999Z" fill="white"/>
</g>
<defs>
<clipPath id="clip0_714_483">
<rect width="40" height="40" fill="white" transform="translate(0.354492 14.0364) rotate(-20)"/>
</clipPath>
</defs>
</svg>
