<svg viewBox="0 0 25 25" fill="none" xmlns="http://www.w3.org/2000/svg">
<g clip-path="url(#clip0_714_620)">
<path d="M25 2.91666C25 1.26012 23.619 -0.0739177 21.9455 0.0031819C20.4637 0.0714436 19.2558 1.26529 19.1716 2.74625C19.1013 3.9814 19.8003 5.06143 20.8334 5.55225V9.58331C20.8334 10.5038 20.0872 11.25 19.1667 11.25H15.1357C14.8475 10.6436 14.3565 10.1524 13.7501 9.86436V5.55225C14.7832 5.06139 15.4822 3.9814 15.4119 2.74625C15.3277 1.26529 14.1197 0.0714436 12.638 0.0031819C10.9644 -0.0738689 9.58342 1.26012 9.58342 2.91666C9.58342 4.08009 10.2648 5.08414 11.2501 5.55225V9.86441C10.6437 10.1525 10.1526 10.6436 9.86448 11.25H4.16667V5.55225C5.19978 5.06139 5.89875 3.9814 5.82849 2.74625C5.74426 1.26529 4.53635 0.0714436 3.05456 0.0031819C1.38103 -0.0738689 2.18018e-05 1.26012 2.18018e-05 2.91666C2.18018e-05 4.08009 0.681369 5.08414 1.66667 5.55225V19.4477C0.633567 19.9386 -0.0654079 21.0186 0.00485579 22.2537C0.0890843 23.7347 1.29699 24.9285 2.77878 24.9968C4.45232 25.0738 5.83332 23.7399 5.83332 22.0833C5.83332 20.9199 5.15198 19.9158 4.16667 19.4477V13.75H9.86438C10.1525 14.3564 10.6436 14.8475 11.25 15.1356V19.4478C10.2169 19.9386 9.51789 21.0186 9.58816 22.2538C9.67239 23.7347 10.8803 24.9286 12.3621 24.9968C14.0356 25.0739 15.4166 23.7399 15.4166 22.0834C15.4166 20.9199 14.7353 19.9159 13.75 19.4478V15.1356C14.3564 14.8475 14.8475 14.3564 15.1356 13.75H19.1666C21.4678 13.75 23.3333 11.8845 23.3333 9.58336V5.55225C24.3187 5.08414 25 4.08009 25 2.91666Z" fill="currentColor" />
</g>
<defs>
<clipPath id="clip0_714_620">
<rect width="100%" height="100%" fill="currentColor"/>
</clipPath>
</defs>
</svg>
