<svg viewBox="0 0 20 20" fill="none" xmlns="http://www.w3.org/2000/svg">
<path d="M19.2205 4.17063C18.4985 3.31244 17.1656 2.96237 14.6201 2.96237H5.37974C2.77594 2.96237 1.42045 3.33502 0.701226 4.24869C0 5.13953 0 6.45211 0 8.26876V11.7313C0 15.2507 0.832 17.0376 5.37974 17.0376H14.6201C16.8276 17.0376 18.0508 16.7287 18.8422 15.9713C19.6537 15.1947 20 13.9266 20 11.7313V8.26876C20 6.35295 19.9457 5.03263 19.2205 4.17063ZM12.8401 10.478L8.64406 12.671C8.55026 12.72 8.44768 12.7444 8.34523 12.7444C8.22923 12.7444 8.11348 12.7131 8.01097 12.6511C7.81793 12.5341 7.70006 12.3249 7.70006 12.0992V7.72734C7.70006 7.50205 7.81761 7.29302 8.01026 7.17598C8.20297 7.05895 8.44265 7.05095 8.64258 7.15482L12.8386 9.33366C13.0521 9.4445 13.1861 9.66489 13.1865 9.90534C13.1867 10.146 13.0532 10.3667 12.8401 10.478Z" fill="currentColor" fill-opacity="0.8"/>
</svg>
