<svg width="0" height="0" style="display: none">

<symbol id="mileage" viewBox="0 0 25 25" fill="none" xmlns="http://www.w3.org/2000/svg">
<path d="M12.5002 2.08325C10.4399 2.08325 8.42599 2.69418 6.71298 3.83878C4.99997 4.98337 3.66484 6.61024 2.87642 8.51363C2.08801 10.417 1.88172 12.5115 2.28365 14.5321C2.68558 16.5527 3.67768 18.4088 5.13447 19.8656C6.59127 21.3224 8.44734 22.3145 10.468 22.7164C12.4886 23.1184 14.5831 22.9121 16.4865 22.1237C18.3899 21.3353 20.0167 20.0001 21.1613 18.2871C22.3059 16.5741 22.9168 14.5601 22.9168 12.4999C22.9168 11.132 22.6474 9.77744 22.1239 8.51363C21.6004 7.24982 20.8331 6.1015 19.8659 5.13422C18.8986 4.16695 17.7503 3.39966 16.4865 2.87617C15.2226 2.35269 13.8681 2.08325 12.5002 2.08325ZM7.771 15.2291C7.87568 15.4087 7.90486 15.6226 7.85214 15.8237C7.79942 16.0248 7.6691 16.1968 7.48975 16.302C7.30966 16.4048 7.09648 16.4329 6.89591 16.3803C6.69535 16.3277 6.52336 16.1986 6.41683 16.0208C5.73274 14.8396 5.40734 13.4848 5.48036 12.1218C5.55338 10.7588 6.02166 9.44655 6.82803 8.34525C7.63441 7.24394 8.74398 6.40124 10.0213 5.92002C11.2986 5.43879 12.6884 5.33987 14.021 5.63533C14.2227 5.67954 14.3985 5.80205 14.5099 5.97591C14.6212 6.14977 14.659 6.36074 14.6148 6.56242C14.5705 6.76409 14.448 6.93995 14.2742 7.0513C14.1003 7.16265 13.8893 7.20037 13.6877 7.15617C12.8884 6.98466 12.0609 6.99343 11.2654 7.18183C10.4699 7.37023 9.72638 7.73353 9.0889 8.24531C8.45141 8.75709 7.93598 9.40449 7.58008 10.1405C7.22418 10.8764 7.03675 11.6824 7.03142 12.4999C7.02424 13.4601 7.28001 14.4039 7.771 15.2291ZM16.1877 9.2395C15.4214 10.7485 14.5585 12.2064 13.6043 13.6041C13.3081 13.8801 12.9164 14.0303 12.5116 14.0232C12.1068 14.0161 11.7206 13.8521 11.4343 13.5658C11.148 13.2795 10.984 12.8933 10.9769 12.4885C10.9697 12.0837 11.12 11.6919 11.396 11.3958C12.7937 10.4416 14.2516 9.57864 15.7606 8.81242C15.8202 8.77787 15.8895 8.76398 15.9578 8.77291C16.0261 8.78185 16.0896 8.8131 16.1383 8.86181C16.187 8.91052 16.2182 8.97395 16.2272 9.04226C16.2361 9.11056 16.2222 9.1799 16.1877 9.2395ZM18.5835 16.0208C18.477 16.1986 18.305 16.3277 18.1044 16.3803C17.9039 16.4329 17.6907 16.4048 17.5106 16.302C17.3312 16.1968 17.2009 16.0248 17.1482 15.8237C17.0955 15.6226 17.1247 15.4087 17.2293 15.2291C17.7203 14.4039 17.9761 13.4601 17.9689 12.4999C17.9686 12.1008 17.9267 11.7028 17.8439 11.3124C17.7997 11.1107 17.8374 10.8998 17.9488 10.7259C18.0601 10.552 18.236 10.4295 18.4377 10.3853C18.6393 10.3411 18.8503 10.3789 19.0242 10.4902C19.198 10.6016 19.3205 10.7774 19.3648 10.9791C19.4767 11.4782 19.5326 11.9884 19.5314 12.4999C19.5324 13.7367 19.2053 14.9516 18.5835 16.0208Z" fill="currentColor"/>
</symbol>

<symbol id="search-car" viewBox="0 0 40 40" fill="none" xmlns="http://www.w3.org/2000/svg">
<path fill-rule="evenodd" clip-rule="evenodd" d="M7.33437 6.54387C8.01494 4.50215 9.92562 3.125 12.0778 3.125H27.9221C30.0742 3.125 31.9849 4.50215 32.6655 6.54387L34.5086 12.0732L35.3738 11.5737C35.9717 11.2286 36.7362 11.4334 37.0813 12.0312C37.4265 12.6291 37.2217 13.3936 36.6238 13.7388L35.3156 14.4941L35.5382 15.1618C37.4541 16.2296 38.75 18.2759 38.75 20.625V22.096C36.8332 19.3195 33.6291 17.5 30 17.5C24.132 17.5 19.375 22.257 19.375 28.125C19.375 28.3348 19.3811 28.5432 19.3931 28.75H11.2113C10.9038 31.2164 8.79975 33.125 6.25 33.125C3.48857 33.125 1.25 30.8864 1.25 28.125V20.625C1.25 18.276 2.54586 16.2297 4.46169 15.1619L4.66403 14.5549L3.25048 13.7388C2.65262 13.3936 2.44778 12.6291 2.79295 12.0312C3.13813 11.4334 3.90262 11.2286 4.50048 11.5737L5.47098 12.1341L7.33437 6.54387ZM30.2938 7.33444L32.6407 14.375H7.35925L9.70606 7.33444C10.0464 6.31356 11.0017 5.625 12.0778 5.625H27.9221C28.9982 5.625 29.9535 6.31356 30.2938 7.33444ZM11.875 23.125C12.5654 23.125 13.125 22.5654 13.125 21.875C13.125 21.1846 12.5654 20.625 11.875 20.625H9.375C8.68463 20.625 8.125 21.1846 8.125 21.875C8.125 22.5654 8.68463 23.125 9.375 23.125H11.875Z" fill="currentColor"/>
<path d="M24.6791 22.8041C27.5846 19.8986 32.2953 19.8986 35.2007 22.8041C37.805 25.4083 38.0749 29.4629 36.0106 32.3679L38.3839 34.7411C38.8721 35.2293 38.8721 36.0208 38.3839 36.5089C37.8958 36.9971 37.1043 36.9971 36.6161 36.5089L34.2429 34.1356C31.3379 36.1999 27.2833 35.93 24.6791 33.3257C21.7736 30.4203 21.7736 25.7096 24.6791 22.8041Z" fill="currentColor"/>
</symbol>

<symbol id="transmission" viewBox="0 0 25 25" fill="none" xmlns="http://www.w3.org/2000/svg">
<g clip-path="url(#clip0_714_620)">
<path d="M25 2.91666C25 1.26012 23.619 -0.0739177 21.9455 0.0031819C20.4637 0.0714436 19.2558 1.26529 19.1716 2.74625C19.1013 3.9814 19.8003 5.06143 20.8334 5.55225V9.58331C20.8334 10.5038 20.0872 11.25 19.1667 11.25H15.1357C14.8475 10.6436 14.3565 10.1524 13.7501 9.86436V5.55225C14.7832 5.06139 15.4822 3.9814 15.4119 2.74625C15.3277 1.26529 14.1197 0.0714436 12.638 0.0031819C10.9644 -0.0738689 9.58342 1.26012 9.58342 2.91666C9.58342 4.08009 10.2648 5.08414 11.2501 5.55225V9.86441C10.6437 10.1525 10.1526 10.6436 9.86448 11.25H4.16667V5.55225C5.19978 5.06139 5.89875 3.9814 5.82849 2.74625C5.74426 1.26529 4.53635 0.0714436 3.05456 0.0031819C1.38103 -0.0738689 2.18018e-05 1.26012 2.18018e-05 2.91666C2.18018e-05 4.08009 0.681369 5.08414 1.66667 5.55225V19.4477C0.633567 19.9386 -0.0654079 21.0186 0.00485579 22.2537C0.0890843 23.7347 1.29699 24.9285 2.77878 24.9968C4.45232 25.0738 5.83332 23.7399 5.83332 22.0833C5.83332 20.9199 5.15198 19.9158 4.16667 19.4477V13.75H9.86438C10.1525 14.3564 10.6436 14.8475 11.25 15.1356V19.4478C10.2169 19.9386 9.51789 21.0186 9.58816 22.2538C9.67239 23.7347 10.8803 24.9286 12.3621 24.9968C14.0356 25.0739 15.4166 23.7399 15.4166 22.0834C15.4166 20.9199 14.7353 19.9159 13.75 19.4478V15.1356C14.3564 14.8475 14.8475 14.3564 15.1356 13.75H19.1666C21.4678 13.75 23.3333 11.8845 23.3333 9.58336V5.55225C24.3187 5.08414 25 4.08009 25 2.91666Z" fill="currentColor" />
</g>
<defs>
<clipPath >
<rect width="100%" height="100%" fill="currentColor"/>
</clipPath>
</defs>
</symbol>

<symbol id="year-issue" viewBox="0 0 25 25" fill="none" xmlns="http://www.w3.org/2000/svg">
<path d="M23.4375 6.24993C23.4375 5.42113 23.1083 4.62627 22.5222 4.04022C21.9362 3.45417 21.1413 3.12493 20.3125 3.12493H19.5312V2.36565C19.5312 1.94524 19.208 1.5844 18.7876 1.56341C18.682 1.55832 18.5764 1.57473 18.4773 1.61164C18.3782 1.64856 18.2876 1.70521 18.2111 1.77816C18.1345 1.85112 18.0735 1.93886 18.0319 2.03606C17.9902 2.13327 17.9688 2.23792 17.9688 2.34368V3.12493H7.03125V2.36565C7.03125 1.94524 6.70801 1.5844 6.2876 1.56341C6.18197 1.55832 6.0764 1.57473 5.9773 1.61164C5.87819 1.64856 5.78762 1.70521 5.71106 1.77816C5.63449 1.85112 5.57354 1.93886 5.53189 2.03606C5.49024 2.13327 5.46876 2.23792 5.46875 2.34368V3.12493H4.6875C3.8587 3.12493 3.06384 3.45417 2.47779 4.04022C1.89174 4.62627 1.5625 5.42113 1.5625 6.24993V6.83587C1.5625 6.88767 1.58308 6.93734 1.61971 6.97397C1.65633 7.0106 1.70601 7.03118 1.75781 7.03118H23.2422C23.294 7.03118 23.3437 7.0106 23.3803 6.97397C23.4169 6.93734 23.4375 6.88767 23.4375 6.83587V6.24993ZM1.5625 20.3124C1.5625 21.1412 1.89174 21.9361 2.47779 22.5221C3.06384 23.1082 3.8587 23.4374 4.6875 23.4374H20.3125C21.1413 23.4374 21.9362 23.1082 22.5222 22.5221C23.1083 21.9361 23.4375 21.1412 23.4375 20.3124V8.78899C23.4375 8.73719 23.4169 8.68751 23.3803 8.65088C23.3437 8.61425 23.294 8.59368 23.2422 8.59368H1.75781C1.70601 8.59368 1.65633 8.61425 1.61971 8.65088C1.58308 8.68751 1.5625 8.73719 1.5625 8.78899V20.3124Z" fill="currentColor" />
</symbol>

</svg>