<svg width="0" height="0" style="display: none">

<symbol id="address" width="40" height="40" viewBox="0 0 40 40" fill="none" xmlns="http://www.w3.org/2000/svg">
<path d="M11.25 31.25H16.25V37.5H11.25V31.25Z" fill="white"/>
<path d="M30 21.25C28.3424 21.25 26.7527 21.9085 25.5806 23.0806C24.4085 24.2527 23.75 25.8424 23.75 27.5C23.75 33.0625 29.025 37.0875 29.25 37.25C29.4664 37.4123 29.7295 37.5 30 37.5C30.2705 37.5 30.5336 37.4123 30.75 37.25C30.975 37.0875 36.25 33.0625 36.25 27.5C36.25 25.8424 35.5915 24.2527 34.4194 23.0806C33.2473 21.9085 31.6576 21.25 30 21.25ZM30 30C29.337 30 28.7011 29.7366 28.2322 29.2678C27.7634 28.7989 27.5 28.163 27.5 27.5C27.5 26.837 27.7634 26.2011 28.2322 25.7322C28.7011 25.2634 29.337 25 30 25C30.663 25 31.2989 25.2634 31.7678 25.7322C32.2366 26.2011 32.5 26.837 32.5 27.5C32.5 28.163 32.2366 28.7989 31.7678 29.2678C31.2989 29.7366 30.663 30 30 30Z" fill="white"/>
<path d="M23.75 21.3875V5C23.75 4.33696 23.4866 3.70107 23.0178 3.23223C22.5489 2.76339 21.913 2.5 21.25 2.5H6.25C5.58696 2.5 4.95107 2.76339 4.48223 3.23223C4.01339 3.70107 3.75 4.33696 3.75 5V36.25C3.75 36.5815 3.8817 36.8995 4.11612 37.1339C4.35054 37.3683 4.66848 37.5 5 37.5H8.75V30C8.75 29.6685 8.8817 29.3505 9.11612 29.1161C9.35054 28.8817 9.66848 28.75 10 28.75H17.5C17.8315 28.75 18.1495 28.8817 18.3839 29.1161C18.6183 29.3505 18.75 29.6685 18.75 30V37.5H22.5C22.8315 37.5 23.1495 37.3683 23.3839 37.1339C23.6183 36.8995 23.75 36.5815 23.75 36.25V35C22.1779 32.8101 21.3062 30.1952 21.25 27.5C21.2529 25.2142 22.1502 23.0202 23.75 21.3875ZM11.25 25H10C9.66848 25 9.35054 24.8683 9.11612 24.6339C8.8817 24.3995 8.75 24.0815 8.75 23.75C8.75 23.4185 8.8817 23.1005 9.11612 22.8661C9.35054 22.6317 9.66848 22.5 10 22.5H11.25C11.5815 22.5 11.8995 22.6317 12.1339 22.8661C12.3683 23.1005 12.5 23.4185 12.5 23.75C12.5 24.0815 12.3683 24.3995 12.1339 24.6339C11.8995 24.8683 11.5815 25 11.25 25ZM11.25 20H10C9.66848 20 9.35054 19.8683 9.11612 19.6339C8.8817 19.3995 8.75 19.0815 8.75 18.75C8.75 18.4185 8.8817 18.1005 9.11612 17.8661C9.35054 17.6317 9.66848 17.5 10 17.5H11.25C11.5815 17.5 11.8995 17.6317 12.1339 17.8661C12.3683 18.1005 12.5 18.4185 12.5 18.75C12.5 19.0815 12.3683 19.3995 12.1339 19.6339C11.8995 19.8683 11.5815 20 11.25 20ZM11.25 15H10C9.66848 15 9.35054 14.8683 9.11612 14.6339C8.8817 14.3995 8.75 14.0815 8.75 13.75C8.75 13.4185 8.8817 13.1005 9.11612 12.8661C9.35054 12.6317 9.66848 12.5 10 12.5H11.25C11.5815 12.5 11.8995 12.6317 12.1339 12.8661C12.3683 13.1005 12.5 13.4185 12.5 13.75C12.5 14.0815 12.3683 14.3995 12.1339 14.6339C11.8995 14.8683 11.5815 15 11.25 15ZM11.25 10H10C9.66848 10 9.35054 9.8683 9.11612 9.63388C8.8817 9.39946 8.75 9.08152 8.75 8.75C8.75 8.41848 8.8817 8.10054 9.11612 7.86612C9.35054 7.6317 9.66848 7.5 10 7.5H11.25C11.5815 7.5 11.8995 7.6317 12.1339 7.86612C12.3683 8.10054 12.5 8.41848 12.5 8.75C12.5 9.08152 12.3683 9.39946 12.1339 9.63388C11.8995 9.8683 11.5815 10 11.25 10ZM17.5 25H16.25C15.9185 25 15.6005 24.8683 15.3661 24.6339C15.1317 24.3995 15 24.0815 15 23.75C15 23.4185 15.1317 23.1005 15.3661 22.8661C15.6005 22.6317 15.9185 22.5 16.25 22.5H17.5C17.8315 22.5 18.1495 22.6317 18.3839 22.8661C18.6183 23.1005 18.75 23.4185 18.75 23.75C18.75 24.0815 18.6183 24.3995 18.3839 24.6339C18.1495 24.8683 17.8315 25 17.5 25ZM17.5 20H16.25C15.9185 20 15.6005 19.8683 15.3661 19.6339C15.1317 19.3995 15 19.0815 15 18.75C15 18.4185 15.1317 18.1005 15.3661 17.8661C15.6005 17.6317 15.9185 17.5 16.25 17.5H17.5C17.8315 17.5 18.1495 17.6317 18.3839 17.8661C18.6183 18.1005 18.75 18.4185 18.75 18.75C18.75 19.0815 18.6183 19.3995 18.3839 19.6339C18.1495 19.8683 17.8315 20 17.5 20ZM17.5 15H16.25C15.9185 15 15.6005 14.8683 15.3661 14.6339C15.1317 14.3995 15 14.0815 15 13.75C15 13.4185 15.1317 13.1005 15.3661 12.8661C15.6005 12.6317 15.9185 12.5 16.25 12.5H17.5C17.8315 12.5 18.1495 12.6317 18.3839 12.8661C18.6183 13.1005 18.75 13.4185 18.75 13.75C18.75 14.0815 18.6183 14.3995 18.3839 14.6339C18.1495 14.8683 17.8315 15 17.5 15ZM17.5 10H16.25C15.9185 10 15.6005 9.8683 15.3661 9.63388C15.1317 9.39946 15 9.08152 15 8.75C15 8.41848 15.1317 8.10054 15.3661 7.86612C15.6005 7.6317 15.9185 7.5 16.25 7.5H17.5C17.8315 7.5 18.1495 7.6317 18.3839 7.86612C18.6183 8.10054 18.75 8.41848 18.75 8.75C18.75 9.08152 18.6183 9.39946 18.3839 9.63388C18.1495 9.8683 17.8315 10 17.5 10Z" fill="white"/>
</symbol>

<symbol id="arrow-left" width="35" height="36" viewBox="0 0 35 36" fill="none" xmlns="http://www.w3.org/2000/svg">
<path d="M16.6797 27.8438L6.83594 18L16.6797 8.15625M8.20312 18H28.1641" stroke="#060606" stroke-width="2" stroke-linecap="round" stroke-linejoin="round"/>
</symbol>

<symbol id="arrow-right" viewBox="0 0 26 25" fill="none" xmlns="http://www.w3.org/2000/svg">
<path d="M13.5859 5.46875L20.6172 12.5L13.5859 19.5312M19.6406 12.5L5.38281 12.5" stroke="currentColor" stroke-width="2" stroke-linecap="round" stroke-linejoin="round"/>
</symbol>

<symbol id="arrow-top-right" viewBox="0 0 25 26" fill="none" xmlns="http://www.w3.org/2000/svg">
<path d="M7.94238 7.61385H17.8861V17.5575M17.1955 8.30438L7.11374 18.3862" stroke="currentColor" stroke-width="2" stroke-linecap="round" stroke-linejoin="round"/>
</symbol>

<symbol id="call" width="18" height="18" viewBox="0 0 18 18" fill="none" xmlns="http://www.w3.org/2000/svg">
<path d="M13.7465 16.875C13.0603 16.875 12.0963 16.6268 10.6528 15.8203C8.89744 14.8359 7.53971 13.9272 5.79385 12.1859C4.11057 10.5036 3.29143 9.4145 2.14498 7.32833C0.849829 4.97286 1.07061 3.73817 1.31741 3.21048C1.61131 2.57977 2.04514 2.20255 2.60588 1.82813C2.92438 1.61946 3.26143 1.44058 3.61276 1.29376C3.64791 1.27864 3.68061 1.26423 3.70979 1.25122C3.88381 1.17282 4.14748 1.05435 4.48147 1.18091C4.70436 1.26458 4.90334 1.43579 5.21483 1.74341C5.85362 2.37341 6.72655 3.77649 7.04858 4.46556C7.26479 4.92997 7.40787 5.23653 7.40823 5.58036C7.40823 5.9829 7.20573 6.29333 6.95998 6.62837C6.91393 6.6913 6.86823 6.75142 6.82393 6.80977C6.55639 7.16134 6.49768 7.26294 6.53635 7.44434C6.61475 7.80892 7.1994 8.89419 8.16022 9.8529C9.12104 10.8116 10.175 11.3593 10.541 11.4374C10.7301 11.4778 10.8338 11.4166 11.1967 11.1396C11.2487 11.0999 11.3021 11.0588 11.358 11.0176C11.7328 10.7388 12.0288 10.5416 12.4219 10.5416H12.424C12.766 10.5416 13.0589 10.69 13.544 10.9347C14.1769 11.2539 15.6221 12.1156 16.256 12.755C16.5643 13.0658 16.7362 13.2641 16.8203 13.4866C16.9468 13.8217 16.8276 14.0843 16.7499 14.2601C16.7369 14.2893 16.7225 14.3213 16.7074 14.3568C16.5594 14.7075 16.3795 15.0438 16.1699 15.3615C15.7962 15.9205 15.4175 16.3533 14.7854 16.6475C14.4608 16.8011 14.1056 16.8789 13.7465 16.875Z" fill="#1D8EE1"/>
</symbol>

<symbol id="car-key" width="40" height="40" viewBox="0 0 40 40" fill="none" xmlns="http://www.w3.org/2000/svg">
<path fill-rule="evenodd" clip-rule="evenodd" d="M32.4802 13.5594L37.9494 19.0286C39.2908 20.37 39.5924 22.5283 38.3379 23.5178L31.277 29.0873C30.0225 30.0769 28.129 30.04 26.7878 28.6988L22.81 24.7212C21.4688 23.3799 21.4318 21.4865 22.4215 20.2319L27.991 13.171C28.9807 11.9163 31.1388 12.2181 32.4802 13.5594ZM30.9691 16.3856L35.1232 20.5398C35.6214 21.038 35.6214 21.8532 35.1232 22.3514C34.625 22.8496 33.8098 22.8496 33.3116 22.3514L29.1574 18.1972C28.6593 17.699 28.6593 16.8838 29.1574 16.3856C29.6556 15.8874 30.4709 15.8874 30.9691 16.3856Z" fill="#1D8EE1"/>
<path fill-rule="evenodd" clip-rule="evenodd" d="M28.9603 0C34.1532 0 38.3628 4.20963 38.3628 9.40253C38.3628 11.8416 37.434 14.0637 35.9109 15.7345L34.8104 14.6342C36.0529 13.2457 36.8087 11.4126 36.8087 9.40253C36.8087 5.06741 33.2953 1.55408 28.9603 1.55408C26.9477 1.55408 25.1125 2.31165 23.7235 3.55679C23.3676 3.1781 22.9905 2.81694 22.5986 2.4794C24.2729 0.940087 26.5067 0 28.9603 0ZM23.8384 15.3488C24.0967 15.5714 24.3695 15.7776 24.6553 15.9656L23.6897 17.1899C23.4061 16.9975 23.1336 16.79 22.8734 16.5687C23.1952 16.1811 23.5206 15.7724 23.8384 15.3488Z" fill="#1D8EE1"/>
<path fill-rule="evenodd" clip-rule="evenodd" d="M6.22712 24.4081C8.40644 25.7781 10.3754 26.4337 12.7643 24.7939C16.2256 22.4179 26.8258 12.9901 25.6307 8.40859C24.831 5.34454 21.2852 1.79873 18.2212 0.999087C13.6397 -0.196045 4.21176 10.404 1.8359 13.8656C0.195911 16.2544 0.851609 18.2233 2.2216 20.4024C3.25018 22.0384 4.58999 23.3793 6.22712 24.4081ZM7.73607 21.187C8.98371 21.9714 10.111 22.3467 11.4787 21.4079C13.4605 20.0475 19.5293 14.6498 18.845 12.0268C18.3873 10.2726 16.3572 8.2425 14.6029 7.78463C11.9799 7.10042 6.58219 13.1693 5.22189 15.151C4.283 16.5187 4.65837 17.6459 5.4427 18.8936C6.03168 19.8302 6.79876 20.598 7.73607 21.187ZM21.3854 5.24424C22.1175 5.97634 22.1175 7.16308 21.3854 7.89518C20.6534 8.62719 19.4666 8.62719 18.7346 7.89518C18.0026 7.16308 18.0026 5.97634 18.7346 5.24424C19.4666 4.51223 20.6534 4.51223 21.3854 5.24424Z" fill="#1D8EE1"/>
<path fill-rule="evenodd" clip-rule="evenodd" d="M10.6562 8.40161L18.2283 15.9738L16.6586 17.5436L9.08637 9.97147L10.6562 8.40161ZM6.97708 12.0126L14.6175 19.6529L13.0477 21.2228L5.40723 13.5823L6.97708 12.0126Z" fill="#1D8EE1"/>
<path fill-rule="evenodd" clip-rule="evenodd" d="M26.61 29.7228L25.0708 31.262L23.9054 31.121L21.5352 33.4911L19.4686 33.765L19.1948 35.8315L17.1283 36.1053L17.1106 37.9158L14.7879 38.4457L14.5141 40.0001L11.5687 39.9402L11.5088 36.9947L13.0632 36.721L13.5931 34.3983L15.4036 34.3806L15.6774 32.3141L17.7439 32.0402L18.0177 29.9736L20.3879 27.6035L20.2469 26.4381L21.7861 24.8989C21.907 25.0557 22.0392 25.2062 22.1821 25.3491L26.1598 29.3268C26.3027 29.4697 26.4532 29.6018 26.61 29.7228Z" fill="#1D8EE1"/>
</symbol>

<symbol id="car-monitor" width="40" height="40" viewBox="0 0 40 40" fill="none" xmlns="http://www.w3.org/2000/svg">
<g clip-path="url(#clip0_714_2741)">
<path d="M0 26.6406C0 29.0138 1.92375 30.9375 4.29688 30.9375H35.7031C38.0762 30.9375 40 29.0138 40 26.6406H0Z" fill="white"/>
<path d="M12.1875 19.2188C12.8347 19.2188 13.3594 18.6941 13.3594 18.0469C13.3594 17.3997 12.8347 16.875 12.1875 16.875C11.5403 16.875 11.0156 17.3997 11.0156 18.0469C11.0156 18.6941 11.5403 19.2188 12.1875 19.2188Z" fill="white"/>
<path d="M15.7035 5.9375H11.2285C10.419 5.9375 9.68398 6.4468 9.39977 7.20484L8.41016 9.84375H15.7035V5.9375Z" fill="white"/>
<path d="M23.3594 7.03125C22.8458 6.34633 22.028 5.9375 21.1719 5.9375H18.0469V9.84375H25.4688L23.3594 7.03125Z" fill="white"/>
<path d="M35.7031 0.078125H4.29688C1.92758 0.078125 0 2.0057 0 4.375V24.2969H40V4.375C40 2.0057 38.0724 0.078125 35.7031 0.078125ZM34.4531 18.0469C34.4531 18.6941 33.9284 19.2188 33.2812 19.2188H31.1266C30.6428 20.5827 29.3402 21.5625 27.8125 21.5625C26.2848 21.5625 24.9822 20.5827 24.4984 19.2188H15.5016C15.0178 20.5827 13.7152 21.5625 12.1875 21.5625C10.6598 21.5625 9.35719 20.5827 8.87344 19.2188H6.71875C6.07156 19.2188 5.54688 18.6941 5.54688 18.0469V11.0156C5.54688 10.8751 5.57211 10.7357 5.62148 10.6041L7.20484 6.38188C7.83023 4.71422 9.44703 3.59375 11.2281 3.59375H21.1719C22.7618 3.59375 24.2805 4.35313 25.2344 5.625L28.3984 9.84375H28.5938C31.8246 9.84375 34.4531 12.4723 34.4531 15.7031V18.0469Z" fill="white"/>
<path d="M27.8125 19.2188C28.4597 19.2188 28.9844 18.6941 28.9844 18.0469C28.9844 17.3997 28.4597 16.875 27.8125 16.875C27.1653 16.875 26.6406 17.3997 26.6406 18.0469C26.6406 18.6941 27.1653 19.2188 27.8125 19.2188Z" fill="white"/>
<path d="M28.5938 12.1875H7.89062V16.875H8.87344C9.35719 15.511 10.6598 14.5312 12.1875 14.5312C13.7152 14.5312 15.0178 15.511 15.5016 16.875H24.4984C24.9822 15.511 26.2848 14.5312 27.8125 14.5312C29.3402 14.5312 30.6428 15.511 31.1266 16.875H32.1094V15.7031C32.1094 13.7646 30.5323 12.1875 28.5938 12.1875Z" fill="white"/>
<path d="M32.5 37.5781H30.3561C28.4548 36.8771 27.0954 35.2322 26.736 33.2812H13.2641C12.9046 35.2322 11.5452 36.8771 9.64398 37.5781H7.5C6.85281 37.5781 6.32812 38.1028 6.32812 38.75C6.32812 39.3972 6.85281 39.9219 7.5 39.9219H32.5C33.1472 39.9219 33.6719 39.3972 33.6719 38.75C33.6719 38.1028 33.1472 37.5781 32.5 37.5781Z" fill="white"/>
</g>
<defs>
<clipPath >
<rect width="40" height="40" fill="white"/>
</clipPath>
</defs>
</symbol>

<symbol id="car" width="49" height="18" viewBox="0 0 49 18" fill="none" xmlns="http://www.w3.org/2000/svg">
<path d="M47.5003 5.70001C47.2003 5.20001 46.7003 4.90001 46.2003 4.80001C43.4003 4.40001 39.7003 2.10001 38.0003 1.70001C34.3003 0.80001 25.0003 -0.799991 21.5003 0.50001C15.8003 2.80001 14.4003 4.40001 13.4003 4.80001C9.8003 5.20001 6.6003 5.90001 3.7003 6.80001C3.3003 7.00001 3.0003 7.20001 2.7003 7.50001C1.3003 9.00001 0.800299 10.8 1.0003 12.9C1.2003 14.4 2.5003 15.5 4.0003 15.5C3.8003 14.9 3.7003 14.3 3.7003 13.7C3.7003 10.3 6.5003 7.50001 9.9003 7.50001C13.3003 7.50001 16.1003 10.3 16.1003 13.7C16.1003 14.3 16.0003 15 15.8003 15.5H33.5003C33.3003 14.9 33.2003 14.3 33.2003 13.7C33.2003 10.3 36.0003 7.50001 39.4003 7.50001C42.8003 7.50001 45.6003 10.3 45.6003 13.7C45.6003 14.3 45.5003 14.8 45.4003 15.3C46.1003 15.1 46.9003 14.9 47.8003 14.4C48.3003 14.1 48.6003 13.6 48.7003 13C49.2003 10.5 48.8003 8.00001 47.5003 5.70001ZM26.0003 5.20001L17.1003 5.50001L16.4003 5.30001C18.1003 4.20001 20.0003 3.30001 22.2003 2.40001C22.3003 2.40001 22.4003 2.30001 22.5003 2.30001C23.6003 2.10001 24.8003 2.10001 26.0003 2.10001V5.20001ZM36.6003 4.80001L28.0003 5.10001V2.20001C30.8003 2.30001 33.8003 2.80001 37.2003 3.60001L36.6003 4.80001Z" fill="#1D8EE1"/>
<path d="M5.80078 13.7C5.80078 11.4 7.70078 9.5 10.0008 9.5C12.3008 9.5 14.2008 11.4 14.2008 13.7C14.2008 16 12.3008 17.9 10.0008 17.9C7.70078 17.9 5.80078 16 5.80078 13.7Z" fill="#1D8EE1"/>
<path d="M43.8004 13.7C43.8004 16 41.9004 17.9 39.6004 17.9C37.3004 17.9 35.4004 16 35.4004 13.7C35.4004 11.4 37.3004 9.5 39.6004 9.5C41.9004 9.5 43.8004 11.4 43.8004 13.7Z" fill="#1D8EE1"/>
</symbol>

<symbol id="catalog" width="22" height="22" viewBox="0 0 22 22" fill="none" xmlns="http://www.w3.org/2000/svg">
<path d="M2.57586 2.57583C1.27419 3.86833 1.27419 8.07583 2.57586 9.34083C3.55294 10.0546 4.75142 10.3989 5.95836 10.3125C7.1653 10.3989 8.36378 10.0546 9.34086 9.34083C10.6425 8.04833 10.6425 3.84083 9.34086 2.57583C8.03919 1.31083 3.86836 1.27416 2.57586 2.57583Z" fill="#1D8EE1"/>
<path d="M2.57586 12.6592C1.27419 13.9517 1.27419 18.1592 2.57586 19.4242C3.55294 20.138 4.75142 20.4822 5.95836 20.3958C7.1653 20.4822 8.36378 20.138 9.34086 19.4242C10.6425 18.1317 10.6425 13.9242 9.34086 12.6592C8.03919 11.3942 3.86836 11.3575 2.57586 12.6592Z" fill="#1D8EE1"/>
<path d="M16.0418 10.3125C17.2488 10.3989 18.4472 10.0546 19.4243 9.34083C20.726 8.04833 20.726 3.84083 19.4243 2.57583C18.1227 1.31083 13.9243 1.27416 12.6593 2.57583C11.3943 3.8775 11.3577 8.07583 12.6593 9.34083C13.6364 10.0546 14.8349 10.3989 16.0418 10.3125Z" fill="#1D8EE1"/>
<path d="M12.6594 12.6592C11.3577 13.9517 11.3577 18.1592 12.6594 19.4242C13.6364 20.138 14.8349 20.4822 16.0419 20.3958C17.2488 20.4822 18.4473 20.138 19.4244 19.4242C20.726 18.1317 20.726 13.9242 19.4244 12.6592C18.1227 11.3942 13.9519 11.3575 12.6594 12.6592Z" fill="#1D8EE1"/>
</symbol>

<symbol id="chevron-down" width="20" height="20" viewBox="0 0 20 20" fill="none" xmlns="http://www.w3.org/2000/svg">
<path d="M4.375 7.1875L10 12.8125L15.625 7.1875" stroke="#060606" stroke-width="2" stroke-linecap="round" stroke-linejoin="round"/>
</symbol>

<symbol id="chevron-left" viewBox="0 0 21 20" fill="none" xmlns="http://www.w3.org/2000/svg">
<path d="M13.3125 15.625L7.6875 10L13.3125 4.375" stroke="currentColor" stroke-width="2" stroke-linecap="round" stroke-linejoin="round"/>
</symbol>

<symbol id="chevron-right" viewBox="0 0 21 20" fill="none" xmlns="http://www.w3.org/2000/svg">
<path d="M7.6875 15.625L13.3125 10L7.6875 4.375" stroke="currentColor" stroke-width="2" stroke-linecap="round" stroke-linejoin="round"/>
</symbol>

<symbol id="fast-delivery" width="40" height="40" viewBox="0 0 40 40" fill="none" xmlns="http://www.w3.org/2000/svg">
<g clip-path="url(#clip0_714_531)">
<path fill-rule="evenodd" clip-rule="evenodd" d="M28.5156 8.3606C31.9836 9.16534 33.3102 11.1932 34.9734 13.9844H28.5156V8.3606ZM8.24829 14.2188C8.92731 14.2188 9.42017 14.5465 9.42017 15.3125C9.42017 15.9586 8.8974 16.4825 8.25165 16.4844H1.17188C0.524597 16.4844 0 17.0093 0 17.6562C0 18.3035 0.524597 18.8281 1.17188 18.8281H11.7188C12.3721 18.8281 12.8952 19.3524 12.8952 20C12.8952 20.6473 12.3706 21.1719 11.7233 21.1719H1.17188C0.524597 21.1719 0 21.6965 0 22.3438C0 22.991 0.524597 23.5156 1.17188 23.5156H3.75V27.0312C3.75 27.6785 4.2746 28.2031 4.92188 28.2031H7.27753C7.69745 30.2716 9.52515 31.7969 11.6797 31.7969C13.8342 31.7969 15.6619 30.2716 16.0818 28.2031H27.9807C28.4006 30.2716 30.2283 31.7969 32.3828 31.7969C34.5374 31.7969 36.3651 30.2716 36.785 28.2031H38.8281C39.4754 28.2031 40 27.6785 40 27.0312V20C40 16.5616 36.3733 16.3333 36.3699 16.3281H27.3438C26.6965 16.3281 26.1719 15.8035 26.1719 15.1562V8.125H4.92188C4.2746 8.125 3.75 8.6496 3.75 9.29688V11.875H2.34375C1.69647 11.875 1.17188 12.3996 1.17188 13.0469C1.17188 13.6942 1.69647 14.2188 2.34375 14.2188H8.24829ZM33.902 25.7855C34.7409 26.6245 34.7409 27.9852 33.902 28.8242C32.5525 30.1736 30.2344 29.2136 30.2344 27.3047C30.2344 25.3961 32.5525 24.436 33.902 25.7855ZM13.1989 25.7855C14.0378 26.6245 14.0378 27.9852 13.1989 28.8242C11.8494 30.1736 9.53125 29.2136 9.53125 27.3047C9.53125 25.3961 11.8494 24.436 13.1989 25.7855Z" fill="white"/>
</g>
<defs>
<clipPath >
<rect width="40" height="40" fill="white"/>
</clipPath>
</defs>
</symbol>

<symbol id="gift" viewBox="0 0 52 52" fill="none" xmlns="http://www.w3.org/2000/svg">
<path d="M17.3428 42.4386C17.7964 43.6848 18.7264 44.6997 19.9282 45.2601C21.13 45.8205 22.5053 45.8806 23.7514 45.427L30.5054 42.9687C30.5833 42.9404 30.6468 42.8823 30.6818 42.8072C30.7168 42.732 30.7206 42.6461 30.6922 42.5682L25.7757 29.0601C25.7473 28.9822 25.6892 28.9188 25.6141 28.8838C25.539 28.8488 25.453 28.845 25.3751 28.8734L14.5099 32.828C14.3542 32.8847 14.2273 33.0009 14.1573 33.1511C14.0872 33.3014 14.0797 33.4733 14.1364 33.629L17.3428 42.4386ZM24.7069 26.1236L21.8211 18.1949L24.1703 17.3399L27.0561 25.2685C27.0844 25.3464 27.1426 25.4098 27.2177 25.4449C27.2928 25.4799 27.3787 25.4837 27.4566 25.4553L37.7345 21.7145C38.1347 21.5688 38.5071 21.3559 38.8356 21.0851C39.4334 20.5915 39.8638 19.9251 40.0679 19.1773C40.2721 18.4295 40.2399 17.6368 39.9758 16.908L39.5483 15.7334C39.2081 14.7988 38.5106 14.0377 37.6092 13.6173C36.7079 13.197 35.6764 13.152 34.7418 13.4922L31.7657 14.5754C31.7399 14.5843 31.7123 14.5863 31.6856 14.5813C31.6588 14.5762 31.6339 14.5643 31.6132 14.5466C31.5925 14.529 31.5767 14.5062 31.5675 14.4806C31.5583 14.455 31.556 14.4274 31.5607 14.4006C31.8227 13.0057 31.5477 11.5632 30.7908 10.3626C30.034 9.16189 28.8512 8.29172 27.4797 7.92654C26.1081 7.56135 24.6492 7.72815 23.3955 8.39349C22.1418 9.05883 21.186 10.1735 20.7196 11.514C19.5007 10.7869 18.052 10.5474 16.6639 10.8436C15.2759 11.1398 14.0511 11.9498 13.2352 13.1111C12.4192 14.2725 12.0725 15.6993 12.2645 17.1056C12.4565 18.5119 13.173 19.7936 14.2703 20.6937C14.2912 20.7112 14.3071 20.7339 14.3165 20.7594C14.3259 20.785 14.3285 20.8125 14.324 20.8394C14.3195 20.8662 14.3081 20.8914 14.2908 20.9124C14.2736 20.9335 14.2511 20.9497 14.2257 20.9594L11.2495 22.0427C10.3149 22.3828 9.55376 23.0803 9.13344 23.9817C8.71312 24.8831 8.66809 25.9145 9.00825 26.8491L9.43577 28.0237C9.70193 28.7517 10.1868 29.3796 10.8238 29.8213C11.4609 30.2629 12.219 30.4967 12.9941 30.4906C13.4199 30.4869 13.842 30.4106 14.2422 30.265L24.5201 26.5241C24.598 26.4958 24.6614 26.4376 24.6964 26.3625C24.7315 26.2874 24.7352 26.2015 24.7069 26.1236ZM23.1015 14.4033C22.8901 13.8225 22.8557 13.1921 23.0026 12.5918C23.1495 11.9914 23.4711 11.4481 23.9268 11.0305C24.3825 10.613 24.9518 10.3399 25.5626 10.2459C26.1735 10.1519 26.7985 10.2411 27.3587 10.5023C27.9189 10.7635 28.389 11.185 28.7096 11.7134C29.0303 12.2418 29.187 12.8534 29.16 13.4708C29.1331 14.0883 28.9236 14.6839 28.5582 15.1824C28.1927 15.6808 27.6876 16.0597 27.1068 16.2711L24.1703 17.3399L23.1015 14.4033ZM16.5396 13.4744C16.9314 13.2992 17.3551 13.2065 17.7843 13.2022C18.2135 13.1979 18.639 13.282 19.0343 13.4494C19.4295 13.6168 19.786 13.8638 20.0816 14.175C20.3772 14.4863 20.6055 14.855 20.7522 15.2584L21.8211 18.1949L18.8845 19.2637C18.1245 19.5382 17.2877 19.5075 16.5498 19.1782C15.8119 18.8489 15.2302 18.2466 14.9268 17.4977C14.6235 16.7487 14.622 15.9114 14.9228 15.1614C15.2235 14.4114 15.8031 13.807 16.5399 13.4752L16.5396 13.4744ZM33.442 41.8999L40.196 39.4417C41.4421 38.9881 42.457 38.0581 43.0175 36.8563C43.5779 35.6544 43.6379 34.2792 43.1844 33.0331L39.9779 24.2235C39.9212 24.0677 39.805 23.9409 39.6548 23.8708C39.5045 23.8007 39.3326 23.7932 39.1769 23.8499L28.3117 27.8045C28.2338 27.8329 28.1704 27.891 28.1353 27.9661C28.1003 28.0412 28.0966 28.1272 28.1249 28.2051L33.0414 41.7132C33.0698 41.791 33.1279 41.8545 33.203 41.8895C33.2781 41.9245 33.3641 41.9283 33.442 41.8999Z" fill="currentColor"/>
</symbol>

<symbol id="location" width="18" height="18" viewBox="0 0 18 18" fill="none" xmlns="http://www.w3.org/2000/svg">
<path d="M9 1.125C5.89465 1.125 3.375 3.39293 3.375 6.1875C3.375 10.6875 9 16.875 9 16.875C9 16.875 14.625 10.6875 14.625 6.1875C14.625 3.39293 12.1054 1.125 9 1.125ZM9 9C8.55499 9 8.11998 8.86804 7.74997 8.62081C7.37996 8.37357 7.09157 8.02217 6.92127 7.61104C6.75097 7.1999 6.70642 6.7475 6.79323 6.31105C6.88005 5.87459 7.09434 5.47368 7.40901 5.15901C7.72368 4.84434 8.12459 4.63005 8.56105 4.54323C8.9975 4.45642 9.4499 4.50097 9.86104 4.67127C10.2722 4.84157 10.6236 5.12996 10.8708 5.49997C11.118 5.86998 11.25 6.30499 11.25 6.75C11.2493 7.34654 11.0121 7.91846 10.5903 8.34027C10.1685 8.76209 9.59654 8.99935 9 9Z" fill="#1D8EE1"/>
</symbol>

<symbol id="medal" width="40" height="40" viewBox="0 0 40 40" fill="none" xmlns="http://www.w3.org/2000/svg">
<g clip-path="url(#clip0_714_553)">
<path d="M6.40686 25.718L2.6239 33.2827C2.44201 33.6462 2.46154 34.078 2.67486 34.4235C2.88879 34.7686 3.26538 34.9789 3.67157 34.9789H9.36218L12.7765 39.5312C12.9983 39.8281 13.3466 39.9999 13.7131 39.9999C14.1998 39.9999 14.5834 39.7094 14.7617 39.3524L18.3264 32.2225C13.5068 31.7617 9.2575 29.3179 6.40686 25.718Z" fill="white"/>
<path d="M37.3549 33.2827L33.5719 25.718C30.7213 29.3179 26.472 31.7617 21.6523 32.2225L25.2174 39.3524C25.3953 39.7094 25.7789 39.9999 26.2657 39.9999C26.6322 39.9999 26.9807 39.8281 27.2026 39.5312L30.6166 34.9789H36.3072C36.7134 34.9789 37.09 34.7686 37.3039 34.4235C37.5172 34.078 37.5367 33.6462 37.3549 33.2827Z" fill="white"/>
<path d="M21.9509 11.5346L19.9896 8.40137L18.0288 11.5346C17.868 11.7916 17.6138 11.9762 17.3199 12.0497L13.7344 12.9467L16.108 15.7799C16.3027 16.0121 16.3998 16.3109 16.3787 16.6133L16.1233 20.3005L19.5513 18.9186C19.7143 18.853 20.0475 18.7654 20.4275 18.9186L23.8558 20.3005L23.6007 16.6133C23.58 16.3109 23.677 16.0121 23.8717 15.7799L26.2454 12.9467L22.6599 12.0497C22.366 11.9762 22.1118 11.7916 21.9509 11.5346Z" fill="white"/>
<path d="M34.9692 14.9792C34.9692 6.71967 28.2496 0 19.99 0C11.7304 0 5.01074 6.71967 5.01074 14.9792C5.01074 23.2385 11.7304 29.9585 19.99 29.9585C28.2496 29.9585 34.9692 23.2388 34.9692 14.9792ZM29.2448 13.0167L25.972 16.9229L26.3236 22.0065C26.3514 22.4094 26.1701 22.7982 25.8436 23.0356C25.5167 23.2727 25.091 23.3252 24.7166 23.1744L19.99 21.2692L15.2634 23.1744C15.1368 23.2254 14.6323 23.3957 14.1364 23.0356C13.8099 22.7982 13.6286 22.4094 13.6564 22.0065L14.0085 16.9229L10.7358 13.017C10.4764 12.7072 10.3947 12.2861 10.5195 11.9022C10.6443 11.5182 10.958 11.2253 11.3499 11.1273L16.2931 9.89075L18.9966 5.57098C19.2109 5.22888 19.5862 5.02106 19.99 5.02106C20.3937 5.02106 20.7691 5.22888 20.9833 5.57098L23.6875 9.89075L28.6307 11.1273C29.0226 11.2253 29.3363 11.5182 29.4611 11.9022C29.5859 12.2861 29.5042 12.7072 29.2448 13.0167Z" fill="white"/>
</g>
<defs>
<clipPath >
<rect width="40" height="40" fill="white"/>
</clipPath>
</defs>
</symbol>

<symbol id="menu" width="20" height="20" viewBox="0 0 20 20" fill="none" xmlns="http://www.w3.org/2000/svg">
<path d="M3.125 6.25H16.875M3.125 10H16.875M3.125 13.75H16.875" stroke="#1D8EE1" stroke-width="1.5" stroke-miterlimit="10" stroke-linecap="round"/>
</symbol>

<symbol id="mileage" viewBox="0 0 25 25" fill="none" xmlns="http://www.w3.org/2000/svg">
<path d="M12.5002 2.08325C10.4399 2.08325 8.42599 2.69418 6.71298 3.83878C4.99997 4.98337 3.66484 6.61024 2.87642 8.51363C2.08801 10.417 1.88172 12.5115 2.28365 14.5321C2.68558 16.5527 3.67768 18.4088 5.13447 19.8656C6.59127 21.3224 8.44734 22.3145 10.468 22.7164C12.4886 23.1184 14.5831 22.9121 16.4865 22.1237C18.3899 21.3353 20.0167 20.0001 21.1613 18.2871C22.3059 16.5741 22.9168 14.5601 22.9168 12.4999C22.9168 11.132 22.6474 9.77744 22.1239 8.51363C21.6004 7.24982 20.8331 6.1015 19.8659 5.13422C18.8986 4.16695 17.7503 3.39966 16.4865 2.87617C15.2226 2.35269 13.8681 2.08325 12.5002 2.08325ZM7.771 15.2291C7.87568 15.4087 7.90486 15.6226 7.85214 15.8237C7.79942 16.0248 7.6691 16.1968 7.48975 16.302C7.30966 16.4048 7.09648 16.4329 6.89591 16.3803C6.69535 16.3277 6.52336 16.1986 6.41683 16.0208C5.73274 14.8396 5.40734 13.4848 5.48036 12.1218C5.55338 10.7588 6.02166 9.44655 6.82803 8.34525C7.63441 7.24394 8.74398 6.40124 10.0213 5.92002C11.2986 5.43879 12.6884 5.33987 14.021 5.63533C14.2227 5.67954 14.3985 5.80205 14.5099 5.97591C14.6212 6.14977 14.659 6.36074 14.6148 6.56242C14.5705 6.76409 14.448 6.93995 14.2742 7.0513C14.1003 7.16265 13.8893 7.20037 13.6877 7.15617C12.8884 6.98466 12.0609 6.99343 11.2654 7.18183C10.4699 7.37023 9.72638 7.73353 9.0889 8.24531C8.45141 8.75709 7.93598 9.40449 7.58008 10.1405C7.22418 10.8764 7.03675 11.6824 7.03142 12.4999C7.02424 13.4601 7.28001 14.4039 7.771 15.2291ZM16.1877 9.2395C15.4214 10.7485 14.5585 12.2064 13.6043 13.6041C13.3081 13.8801 12.9164 14.0303 12.5116 14.0232C12.1068 14.0161 11.7206 13.8521 11.4343 13.5658C11.148 13.2795 10.984 12.8933 10.9769 12.4885C10.9697 12.0837 11.12 11.6919 11.396 11.3958C12.7937 10.4416 14.2516 9.57864 15.7606 8.81242C15.8202 8.77787 15.8895 8.76398 15.9578 8.77291C16.0261 8.78185 16.0896 8.8131 16.1383 8.86181C16.187 8.91052 16.2182 8.97395 16.2272 9.04226C16.2361 9.11056 16.2222 9.1799 16.1877 9.2395ZM18.5835 16.0208C18.477 16.1986 18.305 16.3277 18.1044 16.3803C17.9039 16.4329 17.6907 16.4048 17.5106 16.302C17.3312 16.1968 17.2009 16.0248 17.1482 15.8237C17.0955 15.6226 17.1247 15.4087 17.2293 15.2291C17.7203 14.4039 17.9761 13.4601 17.9689 12.4999C17.9686 12.1008 17.9267 11.7028 17.8439 11.3124C17.7997 11.1107 17.8374 10.8998 17.9488 10.7259C18.0601 10.552 18.236 10.4295 18.4377 10.3853C18.6393 10.3411 18.8503 10.3789 19.0242 10.4902C19.198 10.6016 19.3205 10.7774 19.3648 10.9791C19.4767 11.4782 19.5326 11.9884 19.5314 12.4999C19.5324 13.7367 19.2053 14.9516 18.5835 16.0208Z" fill="currentColor"/>
</symbol>

<symbol id="paper" width="40" height="40" viewBox="0 0 40 40" fill="none" xmlns="http://www.w3.org/2000/svg">
<g clip-path="url(#clip0_714_576)">
<path d="M23.75 0H4.58333C2.05 0 0 2.05 0 4.58333V30.4167C0 32.95 2.05 35 4.58333 35H16.8833L17.25 32.95C17.4167 32.0167 17.85 31.1833 18.5167 30.5L28.3333 20.7V4.58333C28.3333 2.05 26.2833 0 23.75 0ZM6.66667 6.66667H13.3333C14.25 6.66667 15 7.41667 15 8.33333C15 9.25 14.25 10 13.3333 10H6.66667C5.75 10 5 9.25 5 8.33333C5 7.41667 5.75 6.66667 6.66667 6.66667ZM15 23.3333H6.66667C5.75 23.3333 5 22.5833 5 21.6667C5 20.75 5.75 20 6.66667 20H15C15.9167 20 16.6667 20.75 16.6667 21.6667C16.6667 22.5833 15.9167 23.3333 15 23.3333ZM21.6667 16.6667H6.66667C5.75 16.6667 5 15.9167 5 15C5 14.0833 5.75 13.3333 6.66667 13.3333H21.6667C22.5833 13.3333 23.3333 14.0833 23.3333 15C23.3333 15.9167 22.5833 16.6667 21.6667 16.6667Z" fill="white"/>
<path d="M20.8802 40C20.5519 40 20.2319 39.87 19.9969 39.6333C19.7085 39.345 19.5785 38.935 19.6502 38.5316L20.5335 33.5233C20.5769 33.2716 20.7002 33.0383 20.8802 32.8566L33.2552 20.4833C34.7752 18.96 36.2685 19.3716 37.0852 20.1883L39.1469 22.25C40.2852 23.3866 40.2852 25.2366 39.1469 26.375L26.7719 38.75C26.5919 38.9316 26.3585 39.0533 26.1052 39.0966L21.0969 39.98C21.0252 39.9933 20.9519 40 20.8802 40Z" fill="white"/>
</g>
<defs>
<clipPath >
<rect width="40" height="40" fill="white"/>
</clipPath>
</defs>
</symbol>

<symbol id="play" viewBox="0 0 24 27" fill="none" xmlns="http://www.w3.org/2000/svg">
<path d="M21 8.30385C25 10.6132 25 16.3868 21 18.6962L9 25.6244C5 27.9338 -1.37896e-06 25.047 -1.17707e-06 20.4282L-5.71387e-07 6.5718C-3.69492e-07 1.953 5 -0.933759 9 1.37564L21 8.30385Z" fill="currentColor"/>
</symbol>

<symbol id="protection" width="40" height="40" viewBox="0 0 40 40" fill="none" xmlns="http://www.w3.org/2000/svg">
<g clip-path="url(#clip0_714_523)">
<path d="M34.4833 24.8999C33.5167 25.4999 32.6 25.9666 31.7833 26.2999C31.2167 26.5499 30.6 26.6666 30 26.6666C29.4 26.6666 28.7833 26.5499 28.2167 26.2999C26.7667 25.6999 25 24.6999 23.2833 23.3333H7.36667L9.83333 17.6666C10.1 17.0666 10.7 16.6666 11.35 16.6666H17.9167C17.45 15.6333 17.0833 14.5166 16.8833 13.3333H11.35C9.36667 13.3333 7.56667 14.5166 6.76667 16.3333L3.46667 23.9166C3.45 23.9499 3.46667 23.9833 3.45 24.0333C1.41667 25.0666 0 27.1499 0 29.5833V35.8333C0 38.1333 1.86667 39.9999 4.16667 39.9999C6.46667 39.9999 8.33333 38.1333 8.33333 35.8333V34.9999H28.3333V35.8333C28.3333 38.1333 30.2 39.9999 32.5 39.9999C34.8 39.9999 36.6667 38.1333 36.6667 35.8333V29.5833C36.6667 27.6999 35.8167 26.0166 34.4833 24.8999ZM10 31.6666H6.66667C5.75 31.6666 5 30.9166 5 29.9999C5 29.0833 5.75 28.3333 6.66667 28.3333H10C10.9167 28.3333 11.6667 29.0833 11.6667 29.9999C11.6667 30.9166 10.9167 31.6666 10 31.6666ZM30 31.6666H26.6667C25.75 31.6666 25 30.9166 25 29.9999C25 29.0833 25.75 28.3333 26.6667 28.3333H30C30.9167 28.3333 31.6667 29.0833 31.6667 29.9999C31.6667 30.9166 30.9167 31.6666 30 31.6666Z" fill="white"/>
<path d="M39.1517 3.04343L30.4017 0.0667676C30.1417 -0.0232324 29.8583 -0.0232324 29.5983 0.0667676L20.8483 3.04343C20.34 3.2151 20 3.69177 20 4.22677V10.9234C20 19.0968 29.1233 23.0701 29.5117 23.2351C29.825 23.3668 30.175 23.3668 30.4883 23.2351C30.8767 23.0701 40 19.0968 40 10.9234V4.22677C40 3.69177 39.66 3.2151 39.1517 3.04343ZM35.4767 9.36344L30.8933 15.1968C30.31 15.9418 29.2167 16.0501 28.5 15.4334L25.5833 12.9334C24.8833 12.3351 24.8017 11.2818 25.4033 10.5834C26.0017 9.8851 27.055 9.8051 27.7517 10.4034L29.3483 11.7718L32.8567 7.30677C33.425 6.58344 34.4717 6.4551 35.1967 7.02677C35.92 7.59177 36.0467 8.6401 35.4767 9.36344Z" fill="white"/>
</g>
<defs>
<clipPath >
<rect width="40" height="40" fill="white"/>
</clipPath>
</defs>
</symbol>

<symbol id="search-car" viewBox="0 0 40 40" fill="none" xmlns="http://www.w3.org/2000/svg">
<path fill-rule="evenodd" clip-rule="evenodd" d="M7.33437 6.54387C8.01494 4.50215 9.92562 3.125 12.0778 3.125H27.9221C30.0742 3.125 31.9849 4.50215 32.6655 6.54387L34.5086 12.0732L35.3738 11.5737C35.9717 11.2286 36.7362 11.4334 37.0813 12.0312C37.4265 12.6291 37.2217 13.3936 36.6238 13.7388L35.3156 14.4941L35.5382 15.1618C37.4541 16.2296 38.75 18.2759 38.75 20.625V22.096C36.8332 19.3195 33.6291 17.5 30 17.5C24.132 17.5 19.375 22.257 19.375 28.125C19.375 28.3348 19.3811 28.5432 19.3931 28.75H11.2113C10.9038 31.2164 8.79975 33.125 6.25 33.125C3.48857 33.125 1.25 30.8864 1.25 28.125V20.625C1.25 18.276 2.54586 16.2297 4.46169 15.1619L4.66403 14.5549L3.25048 13.7388C2.65262 13.3936 2.44778 12.6291 2.79295 12.0312C3.13813 11.4334 3.90262 11.2286 4.50048 11.5737L5.47098 12.1341L7.33437 6.54387ZM30.2938 7.33444L32.6407 14.375H7.35925L9.70606 7.33444C10.0464 6.31356 11.0017 5.625 12.0778 5.625H27.9221C28.9982 5.625 29.9535 6.31356 30.2938 7.33444ZM11.875 23.125C12.5654 23.125 13.125 22.5654 13.125 21.875C13.125 21.1846 12.5654 20.625 11.875 20.625H9.375C8.68463 20.625 8.125 21.1846 8.125 21.875C8.125 22.5654 8.68463 23.125 9.375 23.125H11.875Z" fill="currentColor"/>
<path d="M24.6791 22.8041C27.5846 19.8986 32.2953 19.8986 35.2007 22.8041C37.805 25.4083 38.0749 29.4629 36.0106 32.3679L38.3839 34.7411C38.8721 35.2293 38.8721 36.0208 38.3839 36.5089C37.8958 36.9971 37.1043 36.9971 36.6161 36.5089L34.2429 34.1356C31.3379 36.1999 27.2833 35.93 24.6791 33.3257C21.7736 30.4203 21.7736 25.7096 24.6791 22.8041Z" fill="currentColor"/>
</symbol>

<symbol id="star" width="15" height="14" viewBox="0 0 15 14" fill="none" xmlns="http://www.w3.org/2000/svg">
<path d="M6.54894 0.927048C6.8483 0.00573778 8.1517 0.0057404 8.45106 0.927051L9.40837 3.87336C9.54224 4.28538 9.9262 4.56434 10.3594 4.56434H13.4574C14.4261 4.56434 14.8289 5.80395 14.0451 6.37336L11.5389 8.19427C11.1884 8.44892 11.0417 8.90028 11.1756 9.31231L12.1329 12.2586C12.4323 13.1799 11.3778 13.946 10.5941 13.3766L8.08778 11.5557C7.7373 11.3011 7.2627 11.3011 6.91221 11.5557L4.40594 13.3766C3.62222 13.946 2.56774 13.1799 2.8671 12.2586L3.82441 9.3123C3.95828 8.90028 3.81162 8.44892 3.46114 8.19427L0.954859 6.37335C0.171145 5.80395 0.573923 4.56434 1.54265 4.56434H4.64057C5.0738 4.56434 5.45776 4.28538 5.59163 3.87336L6.54894 0.927048Z" fill="#FFCD00"/>
</symbol>

<symbol id="telegram" width="20" height="20" viewBox="0 0 20 20" fill="none" xmlns="http://www.w3.org/2000/svg">
<g clip-path="url(#clip0_714_853)">
<path d="M7.84765 12.6508L7.51682 17.3042C7.99015 17.3042 8.19515 17.1008 8.44098 16.8567L10.6602 14.7358L15.2585 18.1033C16.1018 18.5733 16.696 18.3258 16.9235 17.3275L19.9418 3.18416L19.9427 3.18333C20.2102 1.93666 19.4918 1.44916 18.6702 1.75499L0.928482 8.54749C-0.282352 9.01749 -0.264019 9.69249 0.722648 9.99833L5.25848 11.4092L15.7943 4.81666C16.2901 4.48833 16.741 4.66999 16.3701 4.99833L7.84765 12.6508Z" fill="#060606" fill-opacity="0.8"/>
</g>
<defs>
<clipPath >
<rect width="20" height="20" fill="white"/>
</clipPath>
</defs>
</symbol>

<symbol id="transmission" viewBox="0 0 25 25" fill="none" xmlns="http://www.w3.org/2000/svg">
<g clip-path="url(#clip0_714_620)">
<path d="M25 2.91666C25 1.26012 23.619 -0.0739177 21.9455 0.0031819C20.4637 0.0714436 19.2558 1.26529 19.1716 2.74625C19.1013 3.9814 19.8003 5.06143 20.8334 5.55225V9.58331C20.8334 10.5038 20.0872 11.25 19.1667 11.25H15.1357C14.8475 10.6436 14.3565 10.1524 13.7501 9.86436V5.55225C14.7832 5.06139 15.4822 3.9814 15.4119 2.74625C15.3277 1.26529 14.1197 0.0714436 12.638 0.0031819C10.9644 -0.0738689 9.58342 1.26012 9.58342 2.91666C9.58342 4.08009 10.2648 5.08414 11.2501 5.55225V9.86441C10.6437 10.1525 10.1526 10.6436 9.86448 11.25H4.16667V5.55225C5.19978 5.06139 5.89875 3.9814 5.82849 2.74625C5.74426 1.26529 4.53635 0.0714436 3.05456 0.0031819C1.38103 -0.0738689 2.18018e-05 1.26012 2.18018e-05 2.91666C2.18018e-05 4.08009 0.681369 5.08414 1.66667 5.55225V19.4477C0.633567 19.9386 -0.0654079 21.0186 0.00485579 22.2537C0.0890843 23.7347 1.29699 24.9285 2.77878 24.9968C4.45232 25.0738 5.83332 23.7399 5.83332 22.0833C5.83332 20.9199 5.15198 19.9158 4.16667 19.4477V13.75H9.86438C10.1525 14.3564 10.6436 14.8475 11.25 15.1356V19.4478C10.2169 19.9386 9.51789 21.0186 9.58816 22.2538C9.67239 23.7347 10.8803 24.9286 12.3621 24.9968C14.0356 25.0739 15.4166 23.7399 15.4166 22.0834C15.4166 20.9199 14.7353 19.9159 13.75 19.4478V15.1356C14.3564 14.8475 14.8475 14.3564 15.1356 13.75H19.1666C21.4678 13.75 23.3333 11.8845 23.3333 9.58336V5.55225C24.3187 5.08414 25 4.08009 25 2.91666Z" fill="currentColor" />
</g>
<defs>
<clipPath >
<rect width="100%" height="100%" fill="currentColor"/>
</clipPath>
</defs>
</symbol>

<symbol id="vk" width="20" height="20" viewBox="0 0 20 20" fill="none" xmlns="http://www.w3.org/2000/svg">
<path d="M19.1963 15.999H17.0065C16.1783 15.999 15.9288 15.3216 14.4443 13.8213C13.1469 12.5584 12.5989 12.4014 12.2707 12.4014C11.8168 12.4014 11.693 12.5274 11.693 13.1583V15.1471C11.693 15.685 11.5203 16 10.1288 16C8.77893 15.9084 7.46987 15.4942 6.3095 14.7916C5.14913 14.0889 4.17065 13.1179 3.45465 11.9585C1.75517 9.82105 0.572328 7.31299 0 4.63333C0 4.30186 0.124751 4.00141 0.750427 4.00141H2.93837C3.50071 4.00141 3.70319 4.25437 3.92391 4.83879C4.98621 7.99642 6.79894 10.7431 7.53498 10.7431C7.81711 10.7431 7.93994 10.6171 7.93994 9.9067V6.65409C7.84685 5.17026 7.06668 5.04523 7.06668 4.5083C7.07655 4.36664 7.14071 4.23445 7.24553 4.13981C7.35035 4.04516 7.48758 3.99551 7.62806 4.00141H11.0674C11.5376 4.00141 11.693 4.2379 11.693 4.80584V9.19628C11.693 9.67021 11.8946 9.82722 12.0366 9.82722C12.3187 9.82722 12.5356 9.67021 13.0528 9.14879C14.1611 7.78287 15.0668 6.26148 15.7417 4.63236C15.8104 4.43655 15.9409 4.2689 16.113 4.15512C16.2851 4.04133 16.4894 3.98768 16.6946 4.00238H18.8835C19.5399 4.00238 19.679 4.33385 19.5399 4.80681C18.7435 6.60786 17.7585 8.31757 16.6015 9.9067C16.3654 10.2701 16.2714 10.4591 16.6015 10.8856C16.8184 11.217 17.5861 11.8645 18.1014 12.4799C18.8518 13.2359 19.4746 14.1101 19.9458 15.0676C20.1339 15.684 19.8211 15.999 19.1963 15.999Z" fill="#060606" fill-opacity="0.8"/>
</symbol>

<symbol id="whatsapp" width="20" height="20" viewBox="0 0 20 20" fill="none" xmlns="http://www.w3.org/2000/svg">
<g clip-path="url(#clip0_714_855)">
<path d="M10.0025 0H9.9975C4.48375 0 0 4.485 0 10C0 12.1875 0.705 14.215 1.90375 15.8612L0.6575 19.5763L4.50125 18.3475C6.0825 19.395 7.96875 20 10.0025 20C15.5162 20 20 15.5138 20 10C20 4.48625 15.5162 0 10.0025 0ZM15.8212 14.1213C15.58 14.8025 14.6225 15.3675 13.8587 15.5325C13.3363 15.6437 12.6537 15.7325 10.3562 14.78C7.4175 13.5625 5.525 10.5763 5.3775 10.3825C5.23625 10.1887 4.19 8.80125 4.19 7.36625C4.19 5.93125 4.91875 5.2325 5.2125 4.9325C5.45375 4.68625 5.8525 4.57375 6.235 4.57375C6.35875 4.57375 6.47 4.58 6.57 4.585C6.86375 4.5975 7.01125 4.615 7.205 5.07875C7.44625 5.66 8.03375 7.095 8.10375 7.2425C8.175 7.39 8.24625 7.59 8.14625 7.78375C8.0525 7.98375 7.97 8.0725 7.8225 8.2425C7.675 8.4125 7.535 8.5425 7.3875 8.725C7.2525 8.88375 7.1 9.05375 7.27 9.3475C7.44 9.635 8.0275 10.5937 8.8925 11.3637C10.0087 12.3575 10.9137 12.675 11.2375 12.81C11.4787 12.91 11.7662 12.8863 11.9425 12.6988C12.1663 12.4575 12.4425 12.0575 12.7238 11.6638C12.9237 11.3813 13.1763 11.3462 13.4412 11.4462C13.7113 11.54 15.14 12.2462 15.4338 12.3925C15.7275 12.54 15.9212 12.61 15.9925 12.7338C16.0625 12.8575 16.0625 13.4388 15.8212 14.1213Z" fill="#060606" fill-opacity="0.8"/>
</g>
<defs>
<clipPath >
<rect width="20" height="20" fill="white"/>
</clipPath>
</defs>
</symbol>

<symbol id="year-issue" viewBox="0 0 25 25" fill="none" xmlns="http://www.w3.org/2000/svg">
<path d="M23.4375 6.24993C23.4375 5.42113 23.1083 4.62627 22.5222 4.04022C21.9362 3.45417 21.1413 3.12493 20.3125 3.12493H19.5312V2.36565C19.5312 1.94524 19.208 1.5844 18.7876 1.56341C18.682 1.55832 18.5764 1.57473 18.4773 1.61164C18.3782 1.64856 18.2876 1.70521 18.2111 1.77816C18.1345 1.85112 18.0735 1.93886 18.0319 2.03606C17.9902 2.13327 17.9688 2.23792 17.9688 2.34368V3.12493H7.03125V2.36565C7.03125 1.94524 6.70801 1.5844 6.2876 1.56341C6.18197 1.55832 6.0764 1.57473 5.9773 1.61164C5.87819 1.64856 5.78762 1.70521 5.71106 1.77816C5.63449 1.85112 5.57354 1.93886 5.53189 2.03606C5.49024 2.13327 5.46876 2.23792 5.46875 2.34368V3.12493H4.6875C3.8587 3.12493 3.06384 3.45417 2.47779 4.04022C1.89174 4.62627 1.5625 5.42113 1.5625 6.24993V6.83587C1.5625 6.88767 1.58308 6.93734 1.61971 6.97397C1.65633 7.0106 1.70601 7.03118 1.75781 7.03118H23.2422C23.294 7.03118 23.3437 7.0106 23.3803 6.97397C23.4169 6.93734 23.4375 6.88767 23.4375 6.83587V6.24993ZM1.5625 20.3124C1.5625 21.1412 1.89174 21.9361 2.47779 22.5221C3.06384 23.1082 3.8587 23.4374 4.6875 23.4374H20.3125C21.1413 23.4374 21.9362 23.1082 22.5222 22.5221C23.1083 21.9361 23.4375 21.1412 23.4375 20.3124V8.78899C23.4375 8.73719 23.4169 8.68751 23.3803 8.65088C23.3437 8.61425 23.294 8.59368 23.2422 8.59368H1.75781C1.70601 8.59368 1.65633 8.61425 1.61971 8.65088C1.58308 8.68751 1.5625 8.73719 1.5625 8.78899V20.3124Z" fill="currentColor" />
</symbol>

<symbol id="youtube-play" width="96" height="96" viewBox="0 0 96 96" fill="none" xmlns="http://www.w3.org/2000/svg">
<rect x="31" y="31" width="36" height="32" fill="white"/>
<path d="M92.2582 20.0184C88.7929 15.8991 82.3949 14.2188 70.1763 14.2188H25.8228C13.3245 14.2188 6.81817 16.0074 3.36588 20.3931C0 24.6691 0 30.9695 0 39.6894V56.3095C0 73.2027 3.9936 81.7798 25.8228 81.7798H70.1766C80.7725 81.7798 86.644 80.2971 90.4425 76.6618C94.338 72.9339 96 66.8472 96 56.3095V39.6894C96 30.4935 95.7396 24.156 92.2582 20.0184ZM61.6323 50.294L41.4915 60.8202C41.0412 61.0556 40.5489 61.1723 40.0571 61.1723C39.5003 61.1723 38.9447 61.0225 38.4526 60.7245C37.5261 60.1631 36.9603 59.1588 36.9603 58.0756V37.0906C36.9603 36.0092 37.5245 35.0058 38.4492 34.4441C39.3742 33.8823 40.5247 33.8439 41.4844 34.3425L61.6252 44.8009C62.6499 45.333 63.2934 46.3908 63.295 47.545C63.2962 48.7001 62.6555 49.7595 61.6323 50.294Z" fill="#FF0000"/>
</symbol>

<symbol id="youtube" viewBox="0 0 20 20" fill="none" xmlns="http://www.w3.org/2000/svg">
<path d="M19.2205 4.17063C18.4985 3.31244 17.1656 2.96237 14.6201 2.96237H5.37974C2.77594 2.96237 1.42045 3.33502 0.701226 4.24869C0 5.13953 0 6.45211 0 8.26876V11.7313C0 15.2507 0.832 17.0376 5.37974 17.0376H14.6201C16.8276 17.0376 18.0508 16.7287 18.8422 15.9713C19.6537 15.1947 20 13.9266 20 11.7313V8.26876C20 6.35295 19.9457 5.03263 19.2205 4.17063ZM12.8401 10.478L8.64406 12.671C8.55026 12.72 8.44768 12.7444 8.34523 12.7444C8.22923 12.7444 8.11348 12.7131 8.01097 12.6511C7.81793 12.5341 7.70006 12.3249 7.70006 12.0992V7.72734C7.70006 7.50205 7.81761 7.29302 8.01026 7.17598C8.20297 7.05895 8.44265 7.05095 8.64258 7.15482L12.8386 9.33366C13.0521 9.4445 13.1861 9.66489 13.1865 9.90534C13.1867 10.146 13.0532 10.3667 12.8401 10.478Z" fill="currentColor" fill-opacity="0.8"/>
</symbol>

</svg>