<svg xmlns="http://www.w3.org/2000/svg" width="288" height="48" fill="none" viewBox="0 0 288 48"><path fill="#060606" d="M288 19.427a45 45 0 0 1-.95-.082q-1.405 0-2.893 3.76-4.008 10.083-6.24 17.025a2.6 2.6 0 0 0-.826-.124q-.455 0-.992.124a374 374 0 0 0-6.281-17.066q-.661-1.654-1.116-2.314-.867-1.364-2.025-1.364-.247 0-.661.041.083-.66.083-.702l-.083-.662q2.851.124 4.876.124t4.67-.123q-.083.33-.083.66 0 .373.083.703a26 26 0 0 0-1.323-.082q-.826 0-.826 1.074 0 .66.248 1.529 1.446 5.04 3.802 11.033.288.785.413 1.777.083.744.206.744.042 0 .166-.537.165-.827.537-1.777a165 165 0 0 0 3.14-8.843 9 9 0 0 0 .455-2.852q0-2.148-1.405-2.148-.29 0-1.322.082.124-.496.124-.702 0-.164-.124-.662 2.562.083 4.049.083 2.356 0 4.298-.082a2.3 2.3 0 0 0-.083.62q0 .413.083.743m-25.477-7.687q0 .993-.744 1.695a2.5 2.5 0 0 1-1.777.702 2.5 2.5 0 0 1-1.776-.702 2.3 2.3 0 0 1-.703-1.694q0-.992.703-1.694a2.42 2.42 0 0 1 1.776-.744q1.033 0 1.777.743.744.704.744 1.695m2.851 28.06a161 161 0 0 0-5.537-.083q-3.057 0-4.752.082.083-.29.083-.62 0-.372-.083-.744.91.084 1.322.083 1.695 0 1.819-2.438.124-2.769.124-8.182 0-2.355-.124-5.703-.084-2.478-1.777-2.479-.372 0-1.571.083.124-.455.124-.868a4 4 0 0 0-.124-.91q3.224 0 7.397-.66-.124 3.389-.124 11.198 0 2.52.124 7.521.042 2.439 1.736 2.438.454 0 1.363-.083-.123.539-.123.744 0 .165.123.62m-12.077-5.91q-.702 6.405-5.785 6.405-4.752 0-4.752-5.702 0-1.819.083-5.414.082-3.636.082-5.454 0-1.116-.041-3.43 0-.579-.537-.579-.372 0-2.521.083.124-.29.124-.537t-.124-.579q2.273-.33 3.802-3.14 1.322-2.438 1.653-5.744.454.082.826.082.331 0 .703-.082-.248 4.38-.248 7.727 0 .579.702.579h2.438q.372 0 1.199-.042a45 45 0 0 1 1.322-.04 5.3 5.3 0 0 0-.124.99q0 .373.124.786-.785 0-1.612-.041-.785-.042-.95-.042h-2.438q-.62 0-.62.579-.082 2.52-.082 4.008 0 6.116.247 11.157.166 2.976 1.86 2.976 1.074 0 1.983-1.033 1.116-1.281 1.281-3.678.538.248.992.248-.041 0 .413-.083m-14.111 4.339q-1.322 2.025-3.678 2.024-2.81 0-3.264-2.851-.166-1.033-.124-1.033-.125 0-.372.62l-.248.62q-.867 1.239-2.81 1.983-1.777.703-3.471.703-2.644 0-4.215-1.53-1.529-1.528-1.529-3.966 0-6.157 11.075-7.728 1.198-.165 1.198-.868v-2.19q-.082-1.653-.124-1.942-.124-1.322-.372-1.86-.702-1.487-3.347-1.487-3.636 0-3.636 1.818 0 .455.248 1.281.247.827.247 1.281a1.84 1.84 0 0 1-.702 1.488 2.52 2.52 0 0 1-1.653.578q-2.232 0-2.231-2.396 0-1.943 2.066-3.554 2.355-1.86 6.033-1.86 3.884 0 5.661 1.364t1.777 4.256q0 1.2-.041 3.554-.042 2.355-.042 3.554 0 3.76.083 5.496.124 2.892 1.198 2.892.579 0 1.323-.991.33.578.95.743m-7.438-9.05q0-.827-.537-.827h-.413q-3.555.495-5.124 1.57-2.067 1.406-2.067 4.464 0 4.05 2.852 4.05 2.48 0 3.967-1.82 1.281-1.652 1.281-4.007 0-.58.041-1.57zm-15.564 4.877q-3.14 6.24-8.884 6.24-4.547 0-7.191-3.554-2.355-3.224-2.355-7.851 0-4.628 2.521-7.934 2.727-3.596 7.19-3.596t6.694 3.471q1.777 2.81 1.777 7.025v.579q-.372 0-3.636-.124a90 90 0 0 0-4.215-.124 246 246 0 0 0-5.414.041q-.867.041-.867.579 0 3.678 1.694 6.405 1.818 2.892 4.545 2.892 4.546 0 6.86-4.793.537.579 1.281.744m-4.546-8.1q0-3.801-1.033-5.537-1.032-1.777-3.305-1.777-2.438 0-3.926 1.984-1.57 2.107-1.57 5.62 0 .455.124.537.123.082.661.124 2.81.124 4.504.124-.537 0 3.719-.207.826-.041.826-.867m-16.254-4.794q0 1.529-.702 2.314-.703.785-1.694.785a2.25 2.25 0 0 1-1.447-.496 1.73 1.73 0 0 1-.62-1.363q0-.868.538-1.695.578-.867.578-1.115 0-.579-1.033-.579-1.653 0-3.306 2.108-1.736 2.231-1.859 5.248-.124 3.264-.124 4.835 0 4.339.206 5.66.207 1.654 1.819 1.654.454 0 1.611-.083a4 4 0 0 0-.083.785q0 .206.124.579-1.983-.124-4.958-.124-3.058 0-5.786.124.124-.495.124-.661 0-.207-.124-.703.993.041 1.281.041 1.778 0 1.86-2.396.083-2.728.083-6.819 0-6.735-.166-7.892-.206-1.612-1.529-1.612-.413 0-1.446.083.124-.495.124-.91 0-.371-.124-.867 4.38 0 6.281-.661.496 1.321.496 3.388 0 .249-.083.868-.04.579-.041.868 0 .165.083.165t.165-.165q.165-.495.579-1.364 2.23-3.802 5.454-3.802 1.695 0 2.686 1.075 1.033 1.034 1.033 2.727M176.89 34.55q-3.017 5.745-8.265 5.745-4.132 0-6.529-3.017-2.355-3.017-2.355-8.058 0-4.959 2.727-8.388 2.769-3.472 7.066-3.472 3.017 0 4.959 1.695 1.942 1.694 1.942 4.173 0 1.405-.702 2.273-.703.867-1.86.868-1.198 0-1.901-.579a2.02 2.02 0 0 1-.661-1.529q0-.99.744-1.86.992-1.156.992-1.487 0-.867-.827-1.488-.991-.702-2.644-.702-2.646 0-4.174 2.727-1.529 2.728-1.529 7.273 0 4.587 1.736 7.273 1.57 2.438 4.049 2.438 3.183 0 5.992-4.545.62.578 1.24.66m-20.459-5.867q0 4.38-2.19 7.686-2.603 3.926-7.19 3.926-4.628 0-7.273-3.76-2.273-3.182-2.273-7.604 0-4.463 2.19-7.728 2.646-3.843 7.315-3.843 4.587 0 7.19 3.76 2.231 3.183 2.231 7.563m-4.132.124q0-3.43-.909-6.075-1.363-4.008-4.38-4.008-3.1 0-4.463 4.008-.868 2.604-.868 6.158 0 3.553.826 6.074 1.323 3.967 4.422 3.967 3.182 0 4.504-3.967.868-2.52.868-6.157m-17.16 5.083q-.702 6.405-5.785 6.405-4.752 0-4.752-5.702 0-1.819.083-5.414.082-3.636.082-5.454 0-1.116-.041-3.43 0-.579-.537-.579-.372 0-2.521.083.124-.29.124-.537t-.124-.579q2.272-.33 3.802-3.14 1.322-2.438 1.653-5.744.454.082.826.082.33 0 .703-.082-.248 4.38-.248 7.727 0 .579.702.579h2.438q.372 0 1.199-.042a45 45 0 0 1 1.322-.04 5.3 5.3 0 0 0-.124.99q0 .373.124.786-.786 0-1.612-.041-.785-.042-.95-.042h-2.438q-.62 0-.62.579-.083 2.52-.083 4.008 0 6.116.248 11.157.165 2.976 1.86 2.976 1.074 0 1.983-1.033 1.116-1.281 1.281-3.678.537.248.992.248-.041 0 .413-.083m-15.197 5.909q-3.471.082-6.612.496-.248-2.81-.248-3.182 0-.414.083-1.075.124-.702.124-.66 0-.166-.083-.166-.165 0-.248.165a24 24 0 0 1-1.074 1.777q-2.77 3.14-6.116 3.14-2.851 0-4.215-1.694-1.364-1.695-1.364-5.578 0-1.075.042-3.058.04-1.983.041-3.058 0-2.974-.041-4.422-.042-1.735-.455-2.231-.372-.495-1.28-.496-.414 0-1.323.083a6 6 0 0 0 .082-.868q0-.165-.082-.91 4.215 0 7.19-.702-.248 4.092-.248 6.984 0 5.661.124 8.265.166 3.594.868 4.752.578.95 2.066.95 1.529 0 3.223-1.611 2.356-2.232 2.48-5.29.165-3.843.165-5.207 0-1.032-.083-3.677-.041-1.116-.124-1.57-.248-.91-.909-1.116-.29-.083-.826-.083-.29 0-1.529.083.082-.33.082-.91 0-.536-.082-.867 4.05 0 7.521-.703-.29 7.356-.29 8.637V35.5q0 1.53.248 2.108.413.867 1.736.867.455 0 1.157-.04-.124.578-.124.743t.124.62m-22.186.002q-2.685-.125-6.24-.125-3.388 0-5.868.124.124-.495.124-.661 0-.165-.124-.703 1.074.084 1.446.083 1.405 0 1.405-1.364 0-1.115-2.066-7.19-.206-.578-1.24-.62l-3.512-.082-4.339.082q-1.115.042-1.322.703-.124.454-.868 3.058a9 9 0 0 0-.33 2.48q0 2.892 1.694 2.892.371 0 1.694-.041-.124.455-.124.66 0 .165.124.703-1.735-.082-5.455-.082-2.975 0-5.041.082.04-.372.041-.702 0-.372-.041-.662.413.084 1.57.083.992 0 1.818-1.28.662-1.117 1.736-4.092 3.057-8.43 8.471-24.504.62.206 1.157.206.62 0 1.199-.206 3.967 11.901 9.256 25.62 1.653 4.256 3.306 4.256.289 0 1.529-.083-.124.579-.124.786 0 .165.124.578M85.524 27.484q0-.207-.041-.33a252 252 0 0 0-3.76-10.29 56 56 0 0 1-.331-1.736q-.165-.826-.33-.826-.124 0-.249.33a48 48 0 0 1-.537 2.025q-1.323 3.926-3.347 10.455l-.083.29q0 .37.785.413l4.05.123q.744 0 3.14-.082.703-.042.703-.372"/><path fill="#1D8EE1" d="M25.532 1.05a.9.9 0 0 1 .525-.142c.153 0 .237.01.334.045.071.024.192.092.27.149.127.092.158.131.332.429l.538.919.658 1.126.577.985c.144.247.719 1.225 1.274 2.177a1676 1676 0 0 0 1.964 3.358 956 956 0 0 1 1.587 2.713 897 897 0 0 0 1.586 2.713l.864 1.476.749 1.28c.207.355.6 1.024.87 1.488s.61 1.044.756 1.29c.144.248.328.563.41.701.078.136.28.482.452.774l.008.014 1.381 2.362c.59 1.005 1.144 1.954 1.235 2.112.09.157.335.575.544.93l.094.16 1.013 1.732c.402.685.78 1.33.838 1.433s.24.411.404.69l.723 1.235.805 1.379c.207.354.46.783.561.951.102.169.212.363.246.431.033.07.076.188.093.263s.033.201.033.28-.009.197-.022.262a1.5 1.5 0 0 1-.1.285q-.077.164-.21.302a1.3 1.3 0 0 1-.273.212c-.077.04-.194.085-.259.103-.1.024-1.837.028-20.217.017l-.073-.19a3.7 3.7 0 0 0-.352-.696 5 5 0 0 0-.242-.324 3.3 3.3 0 0 0-.671-.588 4 4 0 0 0-.367-.215 3.5 3.5 0 0 0-.82-.273 4 4 0 0 0-.465-.048c-.185-.009-.35 0-.529.024a4 4 0 0 0-.485.1 4 4 0 0 0-.508.206 3.4 3.4 0 0 0-.496.302c-.119.09-.298.252-.4.359a4 4 0 0 0-.328.413c-.08.12-.183.302-.23.405s-.117.28-.154.394a3 3 0 0 0-.1.394 3.6 3.6 0 0 0-.032.919c.015.127.05.324.08.437.03.114.082.287.119.383s.114.263.173.372c.058.11.168.28.244.383s.213.262.308.356c.093.092.246.228.341.3s.298.195.454.271c.155.08.373.171.486.206.112.037.297.086.41.105.15.03.308.04.604.04.29 0 .456-.011.605-.04.112-.022.297-.068.41-.105.112-.035.302-.116.42-.175.12-.059.288-.16.376-.22a3 3 0 0 0 .311-.257 3.5 3.5 0 0 0 .462-.547c.037-.054.117-.197.175-.317.06-.12.147-.33.274-.713l21.74.013.172.061c.095.035.226.094.291.132s.164.113.218.168c.057.055.844 1.153 1.749 2.44a150 150 0 0 1 1.708 2.45c.032.059.088.199.127.306.06.175.069.23.078.503.008.282.006.32-.046.482-.03.096-.09.234-.138.306a1.4 1.4 0 0 1-.19.23c-.058.054-.16.13-.224.168-.065.037-.188.09-.27.114-.15.046-.19.048-2.612.067-1.354.012-3.133.025-3.95.033l-.342.003c-.77.006-1.69.014-2.185.02l-2.479.02-.144.001c-.872.007-2.208.015-2.968.022s-2.081.015-2.936.022l-.329.002c-.809.006-1.784.014-2.305.02l-2.504.022-2.655.021c-.623.007-1.85.015-2.833.02l-.243.002c-1.015.007-2.284.016-2.818.022-.535.007-1.71.016-2.612.024l-3.702.03c-1.19.012-2.111.01-2.18-.001a2 2 0 0 1-.238-.06 1 1 0 0 1-.216-.107 1.3 1.3 0 0 1-.19-.168 1 1 0 0 1-.12-.162 3 3 0 0 1-.068-.168 1.2 1.2 0 0 1-.034-.361c0-.208.01-.296.065-.504.034-.137.108-.365.164-.503.054-.138.213-.477.354-.754.14-.278.42-.808.622-1.182a321 321 0 0 1 1.949-3.533 589 589 0 0 1 2.226-3.96A1053 1053 0 0 1 18.71 31l.952-1.673c.207-.368.423-.746.48-.843s.204-.358.332-.586c.125-.225.235-.409.244-.409s.056.011.104.022.202.03.345.044c.175.015.345.015.529 0 .149-.013.367-.046.485-.077.12-.028.281-.079.361-.11a3 3 0 0 0 .676-.356c.108-.072.265-.199.354-.282a3 3 0 0 0 .283-.302 3.4 3.4 0 0 0 .677-1.433c.018-.09.044-.276.056-.411a2.7 2.7 0 0 0 0-.497 4 4 0 0 0-.066-.466 4 4 0 0 0-.1-.365 4.3 4.3 0 0 0-.306-.635 3.5 3.5 0 0 0-.78-.855 3.4 3.4 0 0 0-.67-.387 3.5 3.5 0 0 0-1.08-.247 3.3 3.3 0 0 0-.83.07 4 4 0 0 0-.334.089 3 3 0 0 0-.42.182c-.133.065-.32.179-.422.251a4 4 0 0 0-.41.361 3 3 0 0 0-.61.875 4 4 0 0 0-.154.383c-.03.096-.078.274-.104.394-.039.182-.047.287-.047.613 0 .321.008.435.047.612.024.12.076.306.112.416a3.8 3.8 0 0 0 .477.908c.085.113.201.256.367.426l-.651 1.138-.765 1.335c-.06.109-.358.625-.658 1.148l-.81 1.411-.615 1.072-.622 1.083c-.149.258-.41.716-.582 1.018l-.415.722c-.056.096-.266.46-.464.81l-.81 1.41c-.246.427-.541.945-.658 1.149l-.432.755c-.123.21-.274.477-.339.59-.064.114-.35.613-.632 1.105l-.633 1.105c-.065.114-.192.335-.28.492l-.519.908c-.194.344-.535.943-.753 1.335-.22.391-.451.79-.514.886a3 3 0 0 1-.242.317 2.2 2.2 0 0 1-.542.424 4 4 0 0 1-.435.167H3.933c-2.828 0-2.955 0-3.07-.04a3 3 0 0 1-.237-.102 1.4 1.4 0 0 1-.235-.173 1.5 1.5 0 0 1-.201-.243 1.5 1.5 0 0 1-.136-.302A1.2 1.2 0 0 1 0 45.816c0-.168.013-.295.041-.409.022-.09.07-.227.104-.306s.427-.772.87-1.542c.444-.77.852-1.48.906-1.576l.82-1.422a1494 1494 0 0 0 2.213-3.839l.94-1.63.329-.572 1.102-1.912.63-1.093c.037-.066.425-.74.864-1.499.436-.76 1.081-1.875 1.43-2.483a433 433 0 0 1 .96-1.663c.064-.114.405-.704.755-1.313l1.507-2.614 1.576-2.735c.388-.674 1.027-1.78 1.418-2.461l1.308-2.269.199-.345 1.323-2.298.615-1.072a1.5 1.5 0 0 1 .5-.508c.073-.037.19-.085.26-.102a1.14 1.14 0 0 1 .55 0c.066.02.178.066.247.103.071.04.18.118.24.18.069.067.185.233.306.437.108.18.384.643.617 1.028l1.624 2.702c.097.162.535.89.971 1.619a1636 1636 0 0 1 1.932 3.216c.169.282.44.735.605 1.006l.566.941.913 1.52a205 205 0 0 0 1.019 1.696c.084.138.427.709.762 1.27l.876 1.458c.266.44.268.444.229.495l-.158.214c-.064.09-.155.221-.196.293a4 4 0 0 0-.164.318 4 4 0 0 0-.151.393 3 3 0 0 0-.102.46 3 3 0 0 0-.026.58c.007.179.029.407.048.503.017.096.05.23.069.295.017.066.07.208.11.317.043.11.121.276.173.372.052.097.14.239.194.318.056.078.184.23.285.337.101.105.266.256.367.332a3.6 3.6 0 0 0 .863.455c.089.03.251.075.357.098a3.4 3.4 0 0 0 .874.079c.112-.008.322-.037.464-.065a4 4 0 0 0 .432-.118 3 3 0 0 0 .587-.28c.093-.055.246-.162.341-.237s.25-.219.346-.321a3 3 0 0 0 .282-.348 4 4 0 0 0 .21-.348c.052-.103.127-.274.164-.383.039-.11.088-.28.11-.383.024-.103.052-.3.065-.437a2.5 2.5 0 0 0 0-.504 5 5 0 0 0-.063-.448 5 5 0 0 0-.11-.394 5 5 0 0 0-.162-.383 3.4 3.4 0 0 0-.503-.744 4 4 0 0 0-.298-.286 4 4 0 0 0-.278-.21 5 5 0 0 0-.248-.156 4 4 0 0 0-.26-.124 3.7 3.7 0 0 0-.669-.202 3 3 0 0 0-.572-.037 3 3 0 0 0-.583.037c-.105.02-.213.042-.237.049-.035.01-.056-.01-.1-.081-.032-.053-2.076-3.512-4.546-7.686l-5.35-9.047-1.066-1.805a6 6 0 0 1-.276-.514 5 5 0 0 1-.128-.36 1.3 1.3 0 0 1-.058-.471c0-.25.007-.293.071-.492.04-.12.089-.259.113-.307s.671-1.12 1.438-2.384a404 404 0 0 1 1.448-2.383 1 1 0 0 1 .138-.157 2 2 0 0 1 .16-.13"/></svg>