<svg viewBox="0 0 25 25" fill="none" xmlns="http://www.w3.org/2000/svg">
<path d="M12.5002 2.08325C10.4399 2.08325 8.42599 2.69418 6.71298 3.83878C4.99997 4.98337 3.66484 6.61024 2.87642 8.51363C2.08801 10.417 1.88172 12.5115 2.28365 14.5321C2.68558 16.5527 3.67768 18.4088 5.13447 19.8656C6.59127 21.3224 8.44734 22.3145 10.468 22.7164C12.4886 23.1184 14.5831 22.9121 16.4865 22.1237C18.3899 21.3353 20.0167 20.0001 21.1613 18.2871C22.3059 16.5741 22.9168 14.5601 22.9168 12.4999C22.9168 11.132 22.6474 9.77744 22.1239 8.51363C21.6004 7.24982 20.8331 6.1015 19.8659 5.13422C18.8986 4.16695 17.7503 3.39966 16.4865 2.87617C15.2226 2.35269 13.8681 2.08325 12.5002 2.08325ZM7.771 15.2291C7.87568 15.4087 7.90486 15.6226 7.85214 15.8237C7.79942 16.0248 7.6691 16.1968 7.48975 16.302C7.30966 16.4048 7.09648 16.4329 6.89591 16.3803C6.69535 16.3277 6.52336 16.1986 6.41683 16.0208C5.73274 14.8396 5.40734 13.4848 5.48036 12.1218C5.55338 10.7588 6.02166 9.44655 6.82803 8.34525C7.63441 7.24394 8.74398 6.40124 10.0213 5.92002C11.2986 5.43879 12.6884 5.33987 14.021 5.63533C14.2227 5.67954 14.3985 5.80205 14.5099 5.97591C14.6212 6.14977 14.659 6.36074 14.6148 6.56242C14.5705 6.76409 14.448 6.93995 14.2742 7.0513C14.1003 7.16265 13.8893 7.20037 13.6877 7.15617C12.8884 6.98466 12.0609 6.99343 11.2654 7.18183C10.4699 7.37023 9.72638 7.73353 9.0889 8.24531C8.45141 8.75709 7.93598 9.40449 7.58008 10.1405C7.22418 10.8764 7.03675 11.6824 7.03142 12.4999C7.02424 13.4601 7.28001 14.4039 7.771 15.2291ZM16.1877 9.2395C15.4214 10.7485 14.5585 12.2064 13.6043 13.6041C13.3081 13.8801 12.9164 14.0303 12.5116 14.0232C12.1068 14.0161 11.7206 13.8521 11.4343 13.5658C11.148 13.2795 10.984 12.8933 10.9769 12.4885C10.9697 12.0837 11.12 11.6919 11.396 11.3958C12.7937 10.4416 14.2516 9.57864 15.7606 8.81242C15.8202 8.77787 15.8895 8.76398 15.9578 8.77291C16.0261 8.78185 16.0896 8.8131 16.1383 8.86181C16.187 8.91052 16.2182 8.97395 16.2272 9.04226C16.2361 9.11056 16.2222 9.1799 16.1877 9.2395ZM18.5835 16.0208C18.477 16.1986 18.305 16.3277 18.1044 16.3803C17.9039 16.4329 17.6907 16.4048 17.5106 16.302C17.3312 16.1968 17.2009 16.0248 17.1482 15.8237C17.0955 15.6226 17.1247 15.4087 17.2293 15.2291C17.7203 14.4039 17.9761 13.4601 17.9689 12.4999C17.9686 12.1008 17.9267 11.7028 17.8439 11.3124C17.7997 11.1107 17.8374 10.8998 17.9488 10.7259C18.0601 10.552 18.236 10.4295 18.4377 10.3853C18.6393 10.3411 18.8503 10.3789 19.0242 10.4902C19.198 10.6016 19.3205 10.7774 19.3648 10.9791C19.4767 11.4782 19.5326 11.9884 19.5314 12.4999C19.5324 13.7367 19.2053 14.9516 18.5835 16.0208Z" fill="currentColor"/>
</svg>
