<svg viewBox="0 0 40 40" fill="none" xmlns="http://www.w3.org/2000/svg">
<path fill-rule="evenodd" clip-rule="evenodd" d="M7.33437 6.54387C8.01494 4.50215 9.92562 3.125 12.0778 3.125H27.9221C30.0742 3.125 31.9849 4.50215 32.6655 6.54387L34.5086 12.0732L35.3738 11.5737C35.9717 11.2286 36.7362 11.4334 37.0813 12.0312C37.4265 12.6291 37.2217 13.3936 36.6238 13.7388L35.3156 14.4941L35.5382 15.1618C37.4541 16.2296 38.75 18.2759 38.75 20.625V22.096C36.8332 19.3195 33.6291 17.5 30 17.5C24.132 17.5 19.375 22.257 19.375 28.125C19.375 28.3348 19.3811 28.5432 19.3931 28.75H11.2113C10.9038 31.2164 8.79975 33.125 6.25 33.125C3.48857 33.125 1.25 30.8864 1.25 28.125V20.625C1.25 18.276 2.54586 16.2297 4.46169 15.1619L4.66403 14.5549L3.25048 13.7388C2.65262 13.3936 2.44778 12.6291 2.79295 12.0312C3.13813 11.4334 3.90262 11.2286 4.50048 11.5737L5.47098 12.1341L7.33437 6.54387ZM30.2938 7.33444L32.6407 14.375H7.35925L9.70606 7.33444C10.0464 6.31356 11.0017 5.625 12.0778 5.625H27.9221C28.9982 5.625 29.9535 6.31356 30.2938 7.33444ZM11.875 23.125C12.5654 23.125 13.125 22.5654 13.125 21.875C13.125 21.1846 12.5654 20.625 11.875 20.625H9.375C8.68463 20.625 8.125 21.1846 8.125 21.875C8.125 22.5654 8.68463 23.125 9.375 23.125H11.875Z" fill="currentColor"/>
<path d="M24.6791 22.8041C27.5846 19.8986 32.2953 19.8986 35.2007 22.8041C37.805 25.4083 38.0749 29.4629 36.0106 32.3679L38.3839 34.7411C38.8721 35.2293 38.8721 36.0208 38.3839 36.5089C37.8958 36.9971 37.1043 36.9971 36.6161 36.5089L34.2429 34.1356C31.3379 36.1999 27.2833 35.93 24.6791 33.3257C21.7736 30.4203 21.7736 25.7096 24.6791 22.8041Z" fill="currentColor"/>
</svg>
