<svg width="20" height="20" viewBox="0 0 20 20" fill="none" xmlns="http://www.w3.org/2000/svg">
<path d="M19.1963 15.999H17.0065C16.1783 15.999 15.9288 15.3216 14.4443 13.8213C13.1469 12.5584 12.5989 12.4014 12.2707 12.4014C11.8168 12.4014 11.693 12.5274 11.693 13.1583V15.1471C11.693 15.685 11.5203 16 10.1288 16C8.77893 15.9084 7.46987 15.4942 6.3095 14.7916C5.14913 14.0889 4.17065 13.1179 3.45465 11.9585C1.75517 9.82105 0.572328 7.31299 0 4.63333C0 4.30186 0.124751 4.00141 0.750427 4.00141H2.93837C3.50071 4.00141 3.70319 4.25437 3.92391 4.83879C4.98621 7.99642 6.79894 10.7431 7.53498 10.7431C7.81711 10.7431 7.93994 10.6171 7.93994 9.9067V6.65409C7.84685 5.17026 7.06668 5.04523 7.06668 4.5083C7.07655 4.36664 7.14071 4.23445 7.24553 4.13981C7.35035 4.04516 7.48758 3.99551 7.62806 4.00141H11.0674C11.5376 4.00141 11.693 4.2379 11.693 4.80584V9.19628C11.693 9.67021 11.8946 9.82722 12.0366 9.82722C12.3187 9.82722 12.5356 9.67021 13.0528 9.14879C14.1611 7.78287 15.0668 6.26148 15.7417 4.63236C15.8104 4.43655 15.9409 4.2689 16.113 4.15512C16.2851 4.04133 16.4894 3.98768 16.6946 4.00238H18.8835C19.5399 4.00238 19.679 4.33385 19.5399 4.80681C18.7435 6.60786 17.7585 8.31757 16.6015 9.9067C16.3654 10.2701 16.2714 10.4591 16.6015 10.8856C16.8184 11.217 17.5861 11.8645 18.1014 12.4799C18.8518 13.2359 19.4746 14.1101 19.9458 15.0676C20.1339 15.684 19.8211 15.999 19.1963 15.999Z" fill="#060606" fill-opacity="0.8"/>
</svg>
